<?xml version="1.0" encoding="us-ascii" standalone="no"?><svg xmlns="http://www.w3.org/2000/svg" xmlns:xlink="http://www.w3.org/1999/xlink" contentStyleType="text/css" height="1194px" preserveAspectRatio="none" style="width:773px;height:1194px;background:#FFFFFF;" version="1.1" viewBox="0 0 773 1194" width="773px" zoomAndPan="magnify"><defs/><g><text fill="#000000" font-family="Verdana" font-size="22" font-weight="bold" lengthAdjust="spacing" textLength="339" x="212.5" y="35.4209">Diagrama de Componentes</text><!--cluster Frontend (NextJS)--><g id="cluster_Frontend (NextJS)"><path d="M222.5,57.6094 L362.5,57.6094 A3.75,3.75 0 0 1 365,60.1094 L372,79.9063 L598.5,79.9063 A2.5,2.5 0 0 1 601,82.4063 L601,473.1094 A2.5,2.5 0 0 1 598.5,475.6094 L222.5,475.6094 A2.5,2.5 0 0 1 220,473.1094 L220,60.1094 A2.5,2.5 0 0 1 222.5,57.6094 " fill="#FFFFFF" style="stroke:#000000;stroke-width:1.0;"/><line style="stroke:#000000;stroke-width:1.0;" x1="220" x2="372" y1="79.9063" y2="79.9063"/><text fill="#000000" font-family="Verdana" font-size="14" font-weight="bold" lengthAdjust="spacing" textLength="139" x="224" y="72.6045">Frontend (NextJS)</text></g><!--cluster Backend--><g id="cluster_Backend"><path d="M13.5,508.6094 L81.5,508.6094 A3.75,3.75 0 0 1 84,511.1094 L91,530.9063 L763.5,530.9063 A2.5,2.5 0 0 1 766,533.4063 L766,1030.1094 A2.5,2.5 0 0 1 763.5,1032.6094 L13.5,1032.6094 A2.5,2.5 0 0 1 11,1030.1094 L11,511.1094 A2.5,2.5 0 0 1 13.5,508.6094 " fill="#FFFFFF" style="stroke:#000000;stroke-width:1.0;"/><line style="stroke:#000000;stroke-width:1.0;" x1="11" x2="91" y1="530.9063" y2="530.9063"/><text fill="#000000" font-family="Verdana" font-size="14" font-weight="bold" lengthAdjust="spacing" textLength="67" x="15" y="523.6045">Backend</text></g><!--cluster Camada de Servi?os--><g id="cluster_Camada de Servi&#231;os"><path d="M37.5,551.6094 L198.5,551.6094 A3.75,3.75 0 0 1 201,554.1094 L208,573.9063 L739.5,573.9063 A2.5,2.5 0 0 1 742,576.4063 L742,876.1094 A2.5,2.5 0 0 1 739.5,878.6094 L37.5,878.6094 A2.5,2.5 0 0 1 35,876.1094 L35,554.1094 A2.5,2.5 0 0 1 37.5,551.6094 " fill="#FFFFFF" style="stroke:#000000;stroke-width:1.0;"/><line style="stroke:#000000;stroke-width:1.0;" x1="35" x2="208" y1="573.9063" y2="573.9063"/><text fill="#000000" font-family="Verdana" font-size="14" font-weight="bold" lengthAdjust="spacing" textLength="160" x="39" y="566.6045">Camada de Servi&#231;os</text></g><!--cluster Servi?os Financeiros--><g id="cluster_Servi&#231;os Financeiros"><path d="M275.5,594.6094 L440.5,594.6094 A3.75,3.75 0 0 1 443,597.1094 L450,616.9063 L715.5,616.9063 A2.5,2.5 0 0 1 718,619.4063 L718,852.1094 A2.5,2.5 0 0 1 715.5,854.6094 L275.5,854.6094 A2.5,2.5 0 0 1 273,852.1094 L273,597.1094 A2.5,2.5 0 0 1 275.5,594.6094 " fill="#FFFFFF" style="stroke:#000000;stroke-width:1.0;"/><line style="stroke:#000000;stroke-width:1.0;" x1="273" x2="450" y1="616.9063" y2="616.9063"/><text fill="#000000" font-family="Verdana" font-size="14" font-weight="bold" lengthAdjust="spacing" textLength="164" x="277" y="609.6045">Servi&#231;os Financeiros</text></g><!--cluster Camada de Dados--><g id="cluster_Camada de Dados"><path d="M207.5,911.6094 L349.5,911.6094 A3.75,3.75 0 0 1 352,914.1094 L359,933.9063 L637.5,933.9063 A2.5,2.5 0 0 1 640,936.4063 L640,1006.1094 A2.5,2.5 0 0 1 637.5,1008.6094 L207.5,1008.6094 A2.5,2.5 0 0 1 205,1006.1094 L205,914.1094 A2.5,2.5 0 0 1 207.5,911.6094 " fill="#FFFFFF" style="stroke:#000000;stroke-width:1.0;"/><line style="stroke:#000000;stroke-width:1.0;" x1="205" x2="359" y1="933.9063" y2="933.9063"/><text fill="#000000" font-family="Verdana" font-size="14" font-weight="bold" lengthAdjust="spacing" textLength="141" x="209" y="926.6045">Camada de Dados</text></g><!--cluster PostgreSQL--><g id="cluster_PostgreSQL"><path d="M189,1075.6094 C189,1065.6094 283,1065.6094 283,1065.6094 C283,1065.6094 377,1065.6094 377,1075.6094 L377,1167.6094 C377,1177.6094 283,1177.6094 283,1177.6094 C283,1177.6094 189,1177.6094 189,1167.6094 L189,1075.6094 " fill="#FFFFFF" style="stroke:#000000;stroke-width:1.0;"/><path d="M189,1075.6094 C189,1085.6094 283,1085.6094 283,1085.6094 C283,1085.6094 377,1085.6094 377,1075.6094 " fill="none" style="stroke:#000000;stroke-width:1.0;"/><text fill="#000000" font-family="Verdana" font-size="14" font-weight="bold" lengthAdjust="spacing" textLength="93" x="236.5" y="1100.6045">PostgreSQL</text></g><!--entity P?ginas--><g id="elem_P&#225;ginas"><rect fill="#FFFFFF" height="46.2969" rx="2.5" ry="2.5" style="stroke:#000000;stroke-width:1.0;" width="94" x="491" y="92.6094"/><rect fill="#FFFFFF" height="10" style="stroke:#000000;stroke-width:1.0;" width="15" x="565" y="97.6094"/><rect fill="#FFFFFF" height="2" style="stroke:#000000;stroke-width:1.0;" width="4" x="563" y="99.6094"/><rect fill="#FFFFFF" height="2" style="stroke:#000000;stroke-width:1.0;" width="4" x="563" y="103.6094"/><text fill="#000000" font-family="Verdana" font-size="14" lengthAdjust="spacing" textLength="54" x="506" y="125.6045">P&#225;ginas</text></g><!--entity Componentes--><g id="elem_Componentes"><rect fill="#FFFFFF" height="46.2969" rx="2.5" ry="2.5" style="stroke:#000000;stroke-width:1.0;" width="139" x="369.5" y="199.6094"/><rect fill="#FFFFFF" height="10" style="stroke:#000000;stroke-width:1.0;" width="15" x="488.5" y="204.6094"/><rect fill="#FFFFFF" height="2" style="stroke:#000000;stroke-width:1.0;" width="4" x="486.5" y="206.6094"/><rect fill="#FFFFFF" height="2" style="stroke:#000000;stroke-width:1.0;" width="4" x="486.5" y="210.6094"/><text fill="#000000" font-family="Verdana" font-size="14" lengthAdjust="spacing" textLength="99" x="384.5" y="232.6045">Componentes</text></g><!--entity Hooks Personalizados--><g id="elem_Hooks Personalizados"><rect fill="#FFFFFF" height="46.2969" rx="2.5" ry="2.5" style="stroke:#000000;stroke-width:1.0;" width="193" x="384.5" y="306.6094"/><rect fill="#FFFFFF" height="10" style="stroke:#000000;stroke-width:1.0;" width="15" x="557.5" y="311.6094"/><rect fill="#FFFFFF" height="2" style="stroke:#000000;stroke-width:1.0;" width="4" x="555.5" y="313.6094"/><rect fill="#FFFFFF" height="2" style="stroke:#000000;stroke-width:1.0;" width="4" x="555.5" y="317.6094"/><text fill="#000000" font-family="Verdana" font-size="14" lengthAdjust="spacing" textLength="153" x="399.5" y="339.6045">Hooks Personalizados</text></g><!--entity Contexto de Autentica??o--><g id="elem_Contexto de Autentica&#231;&#227;o"><rect fill="#FFFFFF" height="46.2969" rx="2.5" ry="2.5" style="stroke:#000000;stroke-width:1.0;" width="219" x="236.5" y="92.6094"/><rect fill="#FFFFFF" height="10" style="stroke:#000000;stroke-width:1.0;" width="15" x="435.5" y="97.6094"/><rect fill="#FFFFFF" height="2" style="stroke:#000000;stroke-width:1.0;" width="4" x="433.5" y="99.6094"/><rect fill="#FFFFFF" height="2" style="stroke:#000000;stroke-width:1.0;" width="4" x="433.5" y="103.6094"/><text fill="#000000" font-family="Verdana" font-size="14" lengthAdjust="spacing" textLength="179" x="251.5" y="125.6045">Contexto de Autentica&#231;&#227;o</text></g><!--entity Rotas da API--><g id="elem_Rotas da API"><rect fill="#FFFFFF" height="46.2969" rx="2.5" ry="2.5" style="stroke:#000000;stroke-width:1.0;" width="126" x="418" y="413.6094"/><rect fill="#FFFFFF" height="10" style="stroke:#000000;stroke-width:1.0;" width="15" x="524" y="418.6094"/><rect fill="#FFFFFF" height="2" style="stroke:#000000;stroke-width:1.0;" width="4" x="522" y="420.6094"/><rect fill="#FFFFFF" height="2" style="stroke:#000000;stroke-width:1.0;" width="4" x="522" y="424.6094"/><text fill="#000000" font-family="Verdana" font-size="14" lengthAdjust="spacing" textLength="86" x="433" y="446.6045">Rotas da API</text></g><!--entity Auth--><g id="elem_Auth"><rect fill="#FFFFFF" height="46.2969" rx="2.5" ry="2.5" style="stroke:#000000;stroke-width:1.0;" width="206" x="51" y="629.6094"/><rect fill="#FFFFFF" height="10" style="stroke:#000000;stroke-width:1.0;" width="15" x="237" y="634.6094"/><rect fill="#FFFFFF" height="2" style="stroke:#000000;stroke-width:1.0;" width="4" x="235" y="636.6094"/><rect fill="#FFFFFF" height="2" style="stroke:#000000;stroke-width:1.0;" width="4" x="235" y="640.6094"/><text fill="#000000" font-family="Verdana" font-size="14" lengthAdjust="spacing" textLength="166" x="66" y="662.6045">Servi&#231;o de Autentica&#231;&#227;o</text></g><!--entity Despesas--><g id="elem_Despesas"><rect fill="#FFFFFF" height="46.2969" rx="2.5" ry="2.5" style="stroke:#000000;stroke-width:1.0;" width="186" x="292" y="629.6094"/><rect fill="#FFFFFF" height="10" style="stroke:#000000;stroke-width:1.0;" width="15" x="458" y="634.6094"/><rect fill="#FFFFFF" height="2" style="stroke:#000000;stroke-width:1.0;" width="4" x="456" y="636.6094"/><rect fill="#FFFFFF" height="2" style="stroke:#000000;stroke-width:1.0;" width="4" x="456" y="640.6094"/><text fill="#000000" font-family="Verdana" font-size="14" lengthAdjust="spacing" textLength="146" x="307" y="662.6045">Servi&#231;o de Despesas</text></g><!--entity Receitas--><g id="elem_Receitas"><rect fill="#FFFFFF" height="46.2969" rx="2.5" ry="2.5" style="stroke:#000000;stroke-width:1.0;" width="176" x="513" y="629.6094"/><rect fill="#FFFFFF" height="10" style="stroke:#000000;stroke-width:1.0;" width="15" x="669" y="634.6094"/><rect fill="#FFFFFF" height="2" style="stroke:#000000;stroke-width:1.0;" width="4" x="667" y="636.6094"/><rect fill="#FFFFFF" height="2" style="stroke:#000000;stroke-width:1.0;" width="4" x="667" y="640.6094"/><text fill="#000000" font-family="Verdana" font-size="14" lengthAdjust="spacing" textLength="136" x="528" y="662.6045">Servi&#231;o de Receitas</text></g><!--entity Saldo--><g id="elem_Saldo"><rect fill="#FFFFFF" height="46.2969" rx="2.5" ry="2.5" style="stroke:#000000;stroke-width:1.0;" width="154" x="289" y="772.6094"/><rect fill="#FFFFFF" height="10" style="stroke:#000000;stroke-width:1.0;" width="15" x="423" y="777.6094"/><rect fill="#FFFFFF" height="2" style="stroke:#000000;stroke-width:1.0;" width="4" x="421" y="779.6094"/><rect fill="#FFFFFF" height="2" style="stroke:#000000;stroke-width:1.0;" width="4" x="421" y="783.6094"/><text fill="#000000" font-family="Verdana" font-size="14" lengthAdjust="spacing" textLength="114" x="304" y="805.6045">Servi&#231;o de Saldo</text></g><g id="elem_GMN15"><path d="M478,752.6094 L478,791.6094 L443.44,795.6094 L478,799.6094 L478,838.2734 A0,0 0 0 0 478,838.2734 L702,838.2734 A0,0 0 0 0 702,838.2734 L702,762.6094 L692,752.6094 L478,752.6094 A0,0 0 0 0 478,752.6094 " fill="#FFFFFF" style="stroke:#000000;stroke-width:1.0;"/><path d="M692,752.6094 L692,762.6094 L702,762.6094 L692,752.6094 " fill="#FFFFFF" style="stroke:#000000;stroke-width:1.0;"/><text fill="#000000" font-family="Verdana" font-size="13" lengthAdjust="spacing" textLength="145" x="484" y="769.6763">Atualiza saldo quando:</text><ellipse cx="489.5" cy="780.375" fill="#000000" rx="2.5" ry="2.5" style="stroke:#000000;stroke-width:0.0;"/><text fill="#000000" font-family="Verdana" font-size="13" lengthAdjust="spacing" textLength="162" x="496" y="784.8091">Nova receita &#233; registrada</text><ellipse cx="489.5" cy="795.5078" fill="#000000" rx="2.5" ry="2.5" style="stroke:#000000;stroke-width:0.0;"/><text fill="#000000" font-family="Verdana" font-size="13" lengthAdjust="spacing" textLength="172" x="496" y="799.9419">Nova despesa &#233; registrada</text><ellipse cx="489.5" cy="810.6406" fill="#000000" rx="2.5" ry="2.5" style="stroke:#000000;stroke-width:0.0;"/><text fill="#000000" font-family="Verdana" font-size="13" lengthAdjust="spacing" textLength="191" x="496" y="815.0747">Receita/despesa &#233; modificada</text><ellipse cx="489.5" cy="825.7734" fill="#000000" rx="2.5" ry="2.5" style="stroke:#000000;stroke-width:0.0;"/><text fill="#000000" font-family="Verdana" font-size="13" lengthAdjust="spacing" textLength="173" x="496" y="830.2075">Receita/despesa &#233; exclu&#237;da</text></g><!--entity ORM--><g id="elem_ORM"><rect fill="#FFFFFF" height="46.2969" rx="2.5" ry="2.5" style="stroke:#000000;stroke-width:1.0;" width="123" x="221.5" y="946.6094"/><rect fill="#FFFFFF" height="10" style="stroke:#000000;stroke-width:1.0;" width="15" x="324.5" y="951.6094"/><rect fill="#FFFFFF" height="2" style="stroke:#000000;stroke-width:1.0;" width="4" x="322.5" y="953.6094"/><rect fill="#FFFFFF" height="2" style="stroke:#000000;stroke-width:1.0;" width="4" x="322.5" y="957.6094"/><text fill="#000000" font-family="Verdana" font-size="14" lengthAdjust="spacing" textLength="83" x="236.5" y="979.6045">Prisma ORM</text></g><g id="elem_GMN20"><path d="M380,949.6094 L380,965.6094 L344.59,969.6094 L380,973.6094 L380,989.875 A0,0 0 0 0 380,989.875 L624,989.875 A0,0 0 0 0 624,989.875 L624,959.6094 L614,949.6094 L380,949.6094 A0,0 0 0 0 380,949.6094 " fill="#FFFFFF" style="stroke:#000000;stroke-width:1.0;"/><path d="M614,949.6094 L614,959.6094 L624,959.6094 L614,949.6094 " fill="#FFFFFF" style="stroke:#000000;stroke-width:1.0;"/><text fill="#000000" font-family="Verdana" font-size="13" lengthAdjust="spacing" textLength="223" x="386" y="966.6763">Transa&#231;&#245;es garantem consist&#234;ncia</text><text fill="#000000" font-family="Verdana" font-size="13" lengthAdjust="spacing" textLength="190" x="386" y="981.8091">entre opera&#231;&#245;es relacionadas</text></g><!--entity Banco de Dados--><g id="elem_Banco de Dados"><rect fill="#FFFFFF" height="46.2969" rx="2.5" ry="2.5" style="stroke:#000000;stroke-width:1.0;" width="155" x="205.5" y="1115.6094"/><rect fill="#FFFFFF" height="10" style="stroke:#000000;stroke-width:1.0;" width="15" x="340.5" y="1120.6094"/><rect fill="#FFFFFF" height="2" style="stroke:#000000;stroke-width:1.0;" width="4" x="338.5" y="1122.6094"/><rect fill="#FFFFFF" height="2" style="stroke:#000000;stroke-width:1.0;" width="4" x="338.5" y="1126.6094"/><text fill="#000000" font-family="Verdana" font-size="14" lengthAdjust="spacing" textLength="115" x="220.5" y="1148.6045">Banco de Dados</text></g><!--link P?ginas to Componentes--><g id="link_P&#225;ginas_Componentes"><path d="M517.25,138.6194 C500.46,156.4194 481.0451,177.0129 464.1851,194.9029 " fill="none" id="P&#225;ginas-to-Componentes" style="stroke:#000000;stroke-width:1.0;"/><polygon fill="#000000" points="460.07,199.2694,469.1536,195.463,463.4992,195.6306,463.3316,189.9763,460.07,199.2694" style="stroke:#000000;stroke-width:1.0;"/></g><!--link P?ginas to Hooks Personalizados--><g id="link_P&#225;ginas_Hooks Personalizados"><path d="M538.61,139.0394 C538.72,165.1994 536.98,209.4494 526,245.6094 C519.33,267.5694 509.7217,285.2677 499.4617,301.3877 " fill="none" id="P&#225;ginas-to-Hooks Personalizados" style="stroke:#000000;stroke-width:1.0;"/><polygon fill="#000000" points="496.24,306.4494,504.447,301.0046,498.9247,302.2313,497.698,296.709,496.24,306.4494" style="stroke:#000000;stroke-width:1.0;"/></g><!--link Componentes to Hooks Personalizados--><g id="link_Componentes_Hooks Personalizados"><path d="M447.8,245.6194 C454.92,263.4194 462.6833,282.8079 469.8333,300.6979 " fill="none" id="Componentes-to-Hooks Personalizados" style="stroke:#000000;stroke-width:1.0;"/><polygon fill="#000000" points="472.06,306.2694,472.4342,296.4276,470.2044,301.6265,465.0056,299.3966,472.06,306.2694" style="stroke:#000000;stroke-width:1.0;"/></g><!--link Hooks Personalizados to Rotas da API--><g id="link_Hooks Personalizados_Rotas da API"><path d="M481,352.6194 C481,370.4194 481,389.3794 481,407.2694 " fill="none" id="Hooks Personalizados-to-Rotas da API" style="stroke:#000000;stroke-width:1.0;"/><polygon fill="#000000" points="481,413.2694,485,404.2694,481,408.2694,477,404.2694,481,413.2694" style="stroke:#000000;stroke-width:1.0;"/></g><!--link Rotas da API to Auth--><g id="link_Rotas da API_Auth"><path d="M417.99,446.4494 C374.34,454.8994 316.48,470.9494 273,500.6094 C222.96,534.7494 186.9845,591.1404 168.5745,624.1204 " fill="none" id="Rotas da API-to-Auth" style="stroke:#000000;stroke-width:1.0;"/><polygon fill="#000000" points="165.65,629.3594,173.5294,623.4505,168.0871,624.9935,166.5441,619.5512,165.65,629.3594" style="stroke:#000000;stroke-width:1.0;"/></g><!--link Rotas da API to Despesas--><g id="link_Rotas da API_Despesas"><path d="M471.09,459.7094 C452.69,500.7094 415.9269,582.6855 397.4569,623.8355 " fill="none" id="Rotas da API-to-Despesas" style="stroke:#000000;stroke-width:1.0;"/><polygon fill="#000000" points="395,629.3094,402.3347,622.7365,397.0474,624.7478,395.0361,619.4606,395,629.3094" style="stroke:#000000;stroke-width:1.0;"/></g><!--link Rotas da API to Receitas--><g id="link_Rotas da API_Receitas"><path d="M493.39,459.7094 C516.38,500.7094 562.4849,582.9263 585.5649,624.0763 " fill="none" id="Rotas da API-to-Receitas" style="stroke:#000000;stroke-width:1.0;"/><polygon fill="#000000" points="588.5,629.3094,587.5861,619.503,586.0541,624.9485,580.6086,623.4165,588.5,629.3094" style="stroke:#000000;stroke-width:1.0;"/></g><!--link Rotas da API to Saldo--><g id="link_Rotas da API_Saldo"><path d="M544.19,446.5994 C603.94,456.5394 687.29,474.6594 707,500.6094 C754.04,562.5494 737.14,603.9094 707,675.6094 C662.6,781.2194 571,720.5794 461,752.6094 C443.69,757.6494 430.8511,762.6522 415.0011,769.9422 " fill="none" id="Rotas da API-to-Saldo" style="stroke:#000000;stroke-width:1.0;"/><polygon fill="#000000" points="409.55,772.4494,419.398,772.3227,414.0926,770.3601,416.0552,765.0546,409.55,772.4494" style="stroke:#000000;stroke-width:1.0;"/></g><!--link Despesas to Saldo--><g id="link_Despesas_Saldo"><path d="M382.03,675.6394 C378.48,701.9794 373.382,739.8532 369.812,766.3232 " fill="none" id="Despesas-to-Saldo" style="stroke:#000000;stroke-width:1.0;stroke-dasharray:7.0,7.0;"/><polygon fill="#000000" points="369.01,772.2694,374.177,763.8848,369.6783,767.3142,366.2488,762.8155,369.01,772.2694" style="stroke:#000000;stroke-width:1.0;"/><text fill="#000000" font-family="Verdana" font-size="13" lengthAdjust="spacing" textLength="119" x="378" y="718.6763">Notifica altera&#231;&#245;es</text></g><!--link Receitas to Saldo--><g id="link_Receitas_Saldo"><path d="M573.1,675.6194 C554.57,689.7894 529.44,708.1894 506,722.6094 C476.09,741.0094 446.3244,756.4525 418.7244,769.8925 " fill="none" id="Receitas-to-Saldo" style="stroke:#000000;stroke-width:1.0;stroke-dasharray:7.0,7.0;"/><polygon fill="#000000" points="413.33,772.5194,423.1728,772.1754,417.8253,770.3303,419.6704,764.9828,413.33,772.5194" style="stroke:#000000;stroke-width:1.0;"/><text fill="#000000" font-family="Verdana" font-size="13" lengthAdjust="spacing" textLength="119" x="531" y="718.6763">Notifica altera&#231;&#245;es</text></g><!--link Auth to ORM--><g id="link_Auth_ORM"><path d="M162.8,675.8394 C179.26,717.3494 215.98,809.4594 248,886.6094 C256.43,906.9094 263.8948,924.4095 270.9948,940.8795 " fill="none" id="Auth-to-ORM" style="stroke:#000000;stroke-width:1.0;"/><polygon fill="#000000" points="273.37,946.3894,273.4804,936.5411,271.3907,941.7978,266.1339,939.7081,273.37,946.3894" style="stroke:#000000;stroke-width:1.0;"/></g><!--link Despesas to ORM--><g id="link_Despesas_ORM"><path d="M345.71,675.6794 C319.46,692.8594 287.08,719.3494 272,752.6094 C242.39,817.9294 261.3204,900.2832 273.7504,940.8032 " fill="none" id="Despesas-to-ORM" style="stroke:#000000;stroke-width:1.0;"/><polygon fill="#000000" points="275.51,946.5394,276.6947,936.762,274.0436,941.7592,269.0464,939.1082,275.51,946.5394" style="stroke:#000000;stroke-width:1.0;"/></g><!--link Receitas to ORM--><g id="link_Receitas_ORM"><path d="M643.21,675.7294 C670.66,692.6994 704.2,718.9094 720,752.6094 C745.28,806.5294 761.1,843.5094 720,886.6094 C692.6,915.3494 400.1,889.4394 363,903.6094 C339.43,912.6194 321.7657,927.1499 306.8757,942.2299 " fill="none" id="Receitas-to-ORM" style="stroke:#000000;stroke-width:1.0;"/><polygon fill="#000000" points="302.66,946.4994,311.8298,942.9056,306.173,942.9415,306.1372,937.2848,302.66,946.4994" style="stroke:#000000;stroke-width:1.0;"/></g><!--link Saldo to ORM--><g id="link_Saldo_ORM"><path d="M355.32,818.7394 C339.38,851.7694 312.157,908.1753 296.247,941.1553 " fill="none" id="Saldo-to-ORM" style="stroke:#000000;stroke-width:1.0;"/><polygon fill="#000000" points="293.64,946.5594,301.1532,940.1913,295.8125,942.056,293.9478,936.7153,293.64,946.5594" style="stroke:#000000;stroke-width:1.0;"/></g><!--link ORM to Banco de Dados--><g id="link_ORM_Banco de Dados"><path d="M283,992.7894 C283,1024.8194 283,1077.6794 283,1109.6094 " fill="none" id="ORM-to-Banco de Dados" style="stroke:#000000;stroke-width:1.0;"/><polygon fill="#000000" points="283,1115.6094,287,1106.6094,283,1110.6094,279,1106.6094,283,1115.6094" style="stroke:#000000;stroke-width:1.0;"/></g><!--SRC=[ZLFDRXCn4BxxAOPU2aWjznwGqaOHHL12mWtrCAodMwiRJx2TAWBbOH272YIEVO9zCSRshlEZvITI4i_uyymtCzyy2RUq85WsQAmA9ZG4OuErmmM29hZWnP8jsK1UgILMTrWJ74qSYyTgU7f5w_1w_km8lYg0ZzFsMsqi-kjex3nDzYlcEmzJSfujDkOBQkw1Wba7Zlb6AuaRJ8NjG_kTq_MC0thG2AFfvRNQxD0ubuEmoCcBzqAewqH-JkxUj0_iCq9YzPw1L219n7Mh4h94Ap5W8fNPYepRnZk8E2Q_92_bnrYzCGISaSG97R0tXe1pR7IcbawgmrWE1CxKjm7ufhk2xZCAgzHTyD4DdrTeDP-Lw-TmnVS8BYU5zeSSQ-E3avuTWdGkuO-WZlcB7To2jRcHdluBH-kgMRM_2YoAALQLp8sAt-6PZgDioZodpdWHwhlPszGa-SyjsczGTESq7nnQ7mV-I1vg52lG0YgsNgfhVzhAR0a5Hy1BSZtSKOEL4UtgRbOxd3THbne3Va8lTAViG-re_lvDjnZdeXmkz9EAZs7IhDOCPPTENa8dQBLT93WHz_ug7LuExzNUcxy21ztvnVxg2UNi42koBQkXze7fRLgb0NzPYu6xiWa3Tvt-Z-5IAYepoLFQ4kcZm-bfzmJEHCiXQHAmsJvLVRB_W4hMKKNUCo136gMAvILUKLibQ-yeiNj7ZjzRIdvoWmzryHi0]--></g></svg>