<?xml version="1.0" encoding="us-ascii" standalone="no"?><svg xmlns="http://www.w3.org/2000/svg" xmlns:xlink="http://www.w3.org/1999/xlink" contentStyleType="text/css" height="192px" preserveAspectRatio="none" style="width:1124px;height:192px;background:#FFFFFF;" version="1.1" viewBox="0 0 1124 192" width="1124px" zoomAndPan="magnify"><defs/><g><text fill="#000000" font-family="Verdana" font-size="22" font-weight="bold" lengthAdjust="spacing" textLength="323" x="396" y="35.4209">Diagrama de Implanta&#231;&#227;o</text><!--cluster Cliente--><g id="cluster_Cliente"><polygon fill="#FFFFFF" points="21,77.6094,31,67.6094,201,67.6094,201,159.6094,191,169.6094,21,169.6094,21,77.6094" style="stroke:#000000;stroke-width:1.0;"/><line style="stroke:#000000;stroke-width:1.0;" x1="191" x2="201" y1="77.6094" y2="67.6094"/><line style="stroke:#000000;stroke-width:1.0;" x1="21" x2="191" y1="77.6094" y2="77.6094"/><line style="stroke:#000000;stroke-width:1.0;" x1="191" x2="191" y1="77.6094" y2="169.6094"/><text fill="#000000" font-family="Verdana" font-size="14" font-weight="bold" lengthAdjust="spacing" textLength="55" x="79.5" y="93.6045">Cliente</text></g><!--cluster Plataforma Vercel--><g id="cluster_Plataforma Vercel"><path d="M256.8509,86.246 C266.931,69.6102 279.0709,69.1553 289.3813,86.0222 C299.8922,66.4091 315.3721,67.379 328.0045,83.7448 C336.9751,69.2132 350.5499,72.5077 358.2984,85.1092 C366.5177,68.2867 382.9771,64.8849 395.9562,79.3871 C408.4895,63.0011 419.5479,66.182 428.6848,82.7594 C435.9511,69.7876 447.7776,64.5324 458.2167,79.3928 C472.3937,60.1024 486.9366,63.0724 497.809,82.7502 C506.2034,69.6322 516.9976,66.4736 526.9399,81.1264 C535.0793,64.7629 552.2414,60.6169 562.9316,78.4409 C574.0341,62.8587 587.7221,65.1168 596.5972,80.8365 C605.1844,65.2077 619.9659,65.8568 628.8226,80.5502 C641.0015,67.413 653.4986,67.2289 663.0521,83.5961 C672.096,68.5501 686.5548,66.0804 696.8235,82.2719 C708.5509,67.0297 719.9287,68.0422 729.6354,84.3721 C752.7668,88.9509 761.5105,105.7367 743.9914,124.7636 C757.1134,141.1302 757.379,156.9852 734.2183,164.4073 C724.0775,181.7965 709.5042,183.5597 699.1788,164.5851 C688.1048,182.0726 678.0124,183.4771 665.8978,165.5634 C654.6006,185.0275 640.0488,180.5754 629.276,165.0151 C618.2414,182.061 606.5467,180.3468 596.9768,163.6145 C589.8574,178.6619 574.9187,184.3917 563.9999,167.5425 C552.9342,183.2272 535.5706,181.542 528.9901,162.96 C521.8672,178.3978 506.4871,179.6626 497.0001,165.5164 C485.7033,183.299 468.8076,184.1989 459.1658,163.8732 C452.2347,175.8812 438.0486,177.8177 430.1177,165.0452 C418.5499,180.4918 406.7471,178.3015 396.0745,164.0201 C383.6493,178.7874 371.3861,180.0103 359.884,162.9698 C351.4096,178.9349 337.1317,184.965 324.4689,167.3927 C313.2211,178.4164 300.9321,179.3457 294.8855,161.9739 C287.6456,179.8465 272.5548,179.9525 260.4354,167.521 C236.4853,156.5076 236.4713,139.4088 257.5033,125.2735 C235.8675,114.0202 237.1946,98.1895 256.8509,86.246 " fill="#FFFFFF" style="stroke:#000000;stroke-width:1.0;"/><text fill="#000000" font-family="Verdana" font-size="14" font-weight="bold" lengthAdjust="spacing" textLength="140" x="422" y="98.6045">Plataforma Vercel</text></g><!--cluster Servi?o de Banco de Dados--><g id="cluster_Servi&#231;o de Banco de Dados"><path d="M835,67.6094 C835,57.6094 971,57.6094 971,57.6094 C971,57.6094 1107,57.6094 1107,67.6094 L1107,159.6094 C1107,169.6094 971,169.6094 971,169.6094 C971,169.6094 835,169.6094 835,159.6094 L835,67.6094 " fill="#FFFFFF" style="stroke:#000000;stroke-width:1.0;"/><path d="M835,67.6094 C835,77.6094 971,77.6094 971,77.6094 C971,77.6094 1107,77.6094 1107,67.6094 " fill="none" style="stroke:#000000;stroke-width:1.0;"/><text fill="#000000" font-family="Verdana" font-size="14" font-weight="bold" lengthAdjust="spacing" textLength="216" x="863" y="92.6045">Servi&#231;o de Banco de Dados</text></g><!--entity Navegador Web--><g id="elem_Navegador Web"><rect fill="#FFFFFF" height="46.2969" rx="2.5" ry="2.5" style="stroke:#000000;stroke-width:1.0;" width="149" x="36.5" y="107.6094"/><rect fill="#FFFFFF" height="10" style="stroke:#000000;stroke-width:1.0;" width="15" x="165.5" y="112.6094"/><rect fill="#FFFFFF" height="2" style="stroke:#000000;stroke-width:1.0;" width="4" x="163.5" y="114.6094"/><rect fill="#FFFFFF" height="2" style="stroke:#000000;stroke-width:1.0;" width="4" x="163.5" y="118.6094"/><text fill="#000000" font-family="Verdana" font-size="14" lengthAdjust="spacing" textLength="109" x="51.5" y="140.6045">Navegador Web</text></g><!--entity Aplica??o NextJS--><g id="elem_Aplica&#231;&#227;o NextJS"><rect fill="#FFFFFF" height="46.2969" rx="2.5" ry="2.5" style="stroke:#000000;stroke-width:1.0;" width="152" x="263" y="107.6094"/><rect fill="#FFFFFF" height="10" style="stroke:#000000;stroke-width:1.0;" width="15" x="395" y="112.6094"/><rect fill="#FFFFFF" height="2" style="stroke:#000000;stroke-width:1.0;" width="4" x="393" y="114.6094"/><rect fill="#FFFFFF" height="2" style="stroke:#000000;stroke-width:1.0;" width="4" x="393" y="118.6094"/><text fill="#000000" font-family="Verdana" font-size="14" lengthAdjust="spacing" textLength="112" x="278" y="140.6045">Aplica&#231;&#227;o NextJS</text></g><!--entity Fun??es Serverless--><g id="elem_Fun&#231;&#245;es Serverless"><rect fill="#FFFFFF" height="46.2969" rx="2.5" ry="2.5" style="stroke:#000000;stroke-width:1.0;" width="176" x="545" y="107.6094"/><rect fill="#FFFFFF" height="10" style="stroke:#000000;stroke-width:1.0;" width="15" x="701" y="112.6094"/><rect fill="#FFFFFF" height="2" style="stroke:#000000;stroke-width:1.0;" width="4" x="699" y="114.6094"/><rect fill="#FFFFFF" height="2" style="stroke:#000000;stroke-width:1.0;" width="4" x="699" y="118.6094"/><text fill="#000000" font-family="Verdana" font-size="14" lengthAdjust="spacing" textLength="136" x="560" y="140.6045">Fun&#231;&#245;es Serverless</text></g><!--entity Banco de Dados PostgreSQL--><g id="elem_Banco de Dados PostgreSQL"><rect fill="#FFFFFF" height="46.2969" rx="2.5" ry="2.5" style="stroke:#000000;stroke-width:1.0;" width="240" x="851" y="107.6094"/><rect fill="#FFFFFF" height="10" style="stroke:#000000;stroke-width:1.0;" width="15" x="1071" y="112.6094"/><rect fill="#FFFFFF" height="2" style="stroke:#000000;stroke-width:1.0;" width="4" x="1069" y="114.6094"/><rect fill="#FFFFFF" height="2" style="stroke:#000000;stroke-width:1.0;" width="4" x="1069" y="118.6094"/><text fill="#000000" font-family="Verdana" font-size="14" lengthAdjust="spacing" textLength="200" x="866" y="140.6045">Banco de Dados PostgreSQL</text></g><!--link Navegador Web to Aplica??o NextJS--><g id="link_Navegador Web_Aplica&#231;&#227;o NextJS"><path d="M185.66,130.6094 C210.33,130.6094 231.81,130.6094 256.61,130.6094 " fill="none" id="Navegador Web-to-Aplica&#231;&#227;o NextJS" style="stroke:#000000;stroke-width:1.0;"/><polygon fill="#000000" points="262.61,130.6094,253.61,126.6094,257.61,130.6094,253.61,134.6094,262.61,130.6094" style="stroke:#000000;stroke-width:1.0;"/><text fill="#000000" font-family="Verdana" font-size="13" lengthAdjust="spacing" textLength="41" x="203.75" y="123.6763">HTTPS</text></g><!--link Aplica??o NextJS to Fun??es Serverless--><g id="link_Aplica&#231;&#227;o NextJS_Fun&#231;&#245;es Serverless"><path d="M415.09,130.6094 C454.82,130.6094 497.63,130.6094 538.98,130.6094 " fill="none" id="Aplica&#231;&#227;o NextJS-to-Fun&#231;&#245;es Serverless" style="stroke:#000000;stroke-width:1.0;"/><polygon fill="#000000" points="544.98,130.6094,535.98,126.6094,539.98,130.6094,535.98,134.6094,544.98,130.6094" style="stroke:#000000;stroke-width:1.0;"/><text fill="#000000" font-family="Verdana" font-size="13" lengthAdjust="spacing" textLength="93" x="433.5" y="123.6763">Chamadas API</text></g><!--link Fun??es Serverless to Banco de Dados PostgreSQL--><g id="link_Fun&#231;&#245;es Serverless_Banco de Dados PostgreSQL"><path d="M721.36,130.6094 C760.87,130.6094 802.07,130.6094 844.73,130.6094 " fill="none" id="Fun&#231;&#245;es Serverless-to-Banco de Dados PostgreSQL" style="stroke:#000000;stroke-width:1.0;"/><polygon fill="#000000" points="850.73,130.6094,841.73,126.6094,845.73,130.6094,841.73,134.6094,850.73,130.6094" style="stroke:#000000;stroke-width:1.0;"/><text fill="#000000" font-family="Verdana" font-size="13" lengthAdjust="spacing" textLength="93" x="739.5" y="146.6763">Consultas SQL</text></g><!--SRC=[TP11QiD034NtEeNgVIxGHI5DA4qfmSMXMOGi58zg3undmemS2YMdoI8dw0byiSfk8BGuE_6__jD7Tr9pmxXtP3s85SSujrH5QWWDuw9Hnmjrv-uK07nGBPivoruumoz0t2pfm1MP477DkoqS0KeNMeDPxaZe8qGblNCisLq2qxspvIyHb_mfByMsbvzQhzet9omu7ZWwJcd06SNiAEdXth3TEVJD7icNmp3Ns-c2_YjY7f9KaOktrm7qhofEegrgcJoCLi9xV5wjyW96pMjqjBQ6PxM-q532QRw06rjNoktYFIhur3fHbWe_]--></g></svg>