<?xml version="1.0" encoding="us-ascii" standalone="no"?><svg xmlns="http://www.w3.org/2000/svg" xmlns:xlink="http://www.w3.org/1999/xlink" contentStyleType="text/css" height="693px" preserveAspectRatio="none" style="width:796px;height:693px;background:#FFFFFF;" version="1.1" viewBox="0 0 796 693" width="796px" zoomAndPan="magnify"><defs/><g><text fill="#000000" font-family="Verdana" font-size="22" font-weight="bold" lengthAdjust="spacing" textLength="452" x="167.5" y="35.4209">Diagrama Entidade-Relacionamento</text><!--class USUARIO--><g id="elem_USUARIO"><rect codeLine="4" fill="#FFFFFF" height="158.0781" id="USUARIO" rx="2.5" ry="2.5" style="stroke:#000000;stroke-width:1.0;" width="204" x="337" y="58.6094"/><ellipse cx="404.25" cy="72.6094" fill="#FFFFFF" rx="9" ry="9" style="stroke:#000000;stroke-width:1.0;"/><path d="M400.0156,67.7031 L400.0156,69.0938 L401.4219,69.0938 L401.4219,76.2188 L400.0156,76.2188 L400.0156,77.6094 L408.6563,77.6094 L408.6563,73.9219 L407.2344,73.9219 L407.1563,76.2188 L402.9063,76.2188 L402.9063,73.0938 L404.9063,73.0938 L404.9063,74.2969 L406.3281,74.2969 L406.3281,70.4688 L404.9063,70.4688 L404.9063,71.6875 L402.9063,71.6875 L402.9063,69.0938 L407,69.0938 L407.1563,71.375 L408.5625,71.375 L408.4844,67.7031 L400.0156,67.7031 Z " fill="#000000"/><text fill="#000000" font-family="Verdana" font-size="14" lengthAdjust="spacing" textLength="62" x="421.75" y="77.4561">USUARIO</text><line style="stroke:#000000;stroke-width:1.0;" x1="338" x2="540" y1="86.6094" y2="86.6094"/><ellipse cx="348" cy="100.2578" fill="#FFFFFF" rx="3" ry="3" style="stroke:#000000;stroke-width:1.0;"/><text fill="#000000" font-family="Verdana" font-size="14" lengthAdjust="spacing" textLength="95" x="355" y="103.6045">id : uuid &#171;PK&#187;</text><line style="stroke:#000000;stroke-width:1.0;" x1="338" x2="540" y1="110.9063" y2="110.9063"/><ellipse cx="348" cy="124.5547" fill="#FFFFFF" rx="3" ry="3" style="stroke:#000000;stroke-width:1.0;"/><text fill="#000000" font-family="Verdana" font-size="14" lengthAdjust="spacing" textLength="84" x="355" y="127.9014">email : texto</text><ellipse cx="348" cy="140.8516" fill="#FFFFFF" rx="3" ry="3" style="stroke:#000000;stroke-width:1.0;"/><text fill="#000000" font-family="Verdana" font-size="14" lengthAdjust="spacing" textLength="132" x="355" y="144.1982">senha_hash : texto</text><ellipse cx="348" cy="157.1484" fill="#FFFFFF" rx="3" ry="3" style="stroke:#000000;stroke-width:1.0;"/><text fill="#000000" font-family="Verdana" font-size="14" lengthAdjust="spacing" textLength="88" x="355" y="160.4951">nome : texto</text><ellipse cx="348" cy="173.4453" fill="#FFFFFF" rx="3" ry="3" style="stroke:#000000;stroke-width:1.0;"/><text fill="#000000" font-family="Verdana" font-size="14" lengthAdjust="spacing" textLength="86" x="355" y="176.792">perfil : enum</text><ellipse cx="348" cy="189.7422" fill="#FFFFFF" rx="3" ry="3" style="stroke:#000000;stroke-width:1.0;"/><text fill="#000000" font-family="Verdana" font-size="14" lengthAdjust="spacing" textLength="152" x="355" y="193.0889">criado_em : data_hora</text><ellipse cx="348" cy="206.0391" fill="#FFFFFF" rx="3" ry="3" style="stroke:#000000;stroke-width:1.0;"/><text fill="#000000" font-family="Verdana" font-size="14" lengthAdjust="spacing" textLength="180" x="355" y="209.3857">atualizado_em : data_hora</text></g><!--class DESPESA--><g id="elem_DESPESA"><rect codeLine="15" fill="#FFFFFF" height="174.375" id="DESPESA" rx="2.5" ry="2.5" style="stroke:#000000;stroke-width:1.0;" width="204" x="12" y="293.6094"/><ellipse cx="77.75" cy="307.6094" fill="#FFFFFF" rx="9" ry="9" style="stroke:#000000;stroke-width:1.0;"/><path d="M73.5156,302.7031 L73.5156,304.0938 L74.9219,304.0938 L74.9219,311.2188 L73.5156,311.2188 L73.5156,312.6094 L82.1563,312.6094 L82.1563,308.9219 L80.7344,308.9219 L80.6563,311.2188 L76.4063,311.2188 L76.4063,308.0938 L78.4063,308.0938 L78.4063,309.2969 L79.8281,309.2969 L79.8281,305.4688 L78.4063,305.4688 L78.4063,306.6875 L76.4063,306.6875 L76.4063,304.0938 L80.5,304.0938 L80.6563,306.375 L82.0625,306.375 L81.9844,302.7031 L73.5156,302.7031 Z " fill="#000000"/><text fill="#000000" font-family="Verdana" font-size="14" lengthAdjust="spacing" textLength="65" x="95.25" y="312.4561">DESPESA</text><line style="stroke:#000000;stroke-width:1.0;" x1="13" x2="215" y1="321.6094" y2="321.6094"/><ellipse cx="23" cy="335.2578" fill="#FFFFFF" rx="3" ry="3" style="stroke:#000000;stroke-width:1.0;"/><text fill="#000000" font-family="Verdana" font-size="14" lengthAdjust="spacing" textLength="95" x="30" y="338.6045">id : uuid &#171;PK&#187;</text><line style="stroke:#000000;stroke-width:1.0;" x1="13" x2="215" y1="345.9063" y2="345.9063"/><ellipse cx="23" cy="359.5547" fill="#FFFFFF" rx="3" ry="3" style="stroke:#000000;stroke-width:1.0;"/><text fill="#000000" font-family="Verdana" font-size="14" lengthAdjust="spacing" textLength="152" x="30" y="362.9014">usuario_id : uuid &#171;FK&#187;</text><ellipse cx="23" cy="375.8516" fill="#FFFFFF" rx="3" ry="3" style="stroke:#000000;stroke-width:1.0;"/><text fill="#000000" font-family="Verdana" font-size="14" lengthAdjust="spacing" textLength="165" x="30" y="379.1982">categoria_id : uuid &#171;FK&#187;</text><ellipse cx="23" cy="392.1484" fill="#FFFFFF" rx="3" ry="3" style="stroke:#000000;stroke-width:1.0;"/><text fill="#000000" font-family="Verdana" font-size="14" lengthAdjust="spacing" textLength="98" x="30" y="395.4951">valor : decimal</text><ellipse cx="23" cy="408.4453" fill="#FFFFFF" rx="3" ry="3" style="stroke:#000000;stroke-width:1.0;"/><text fill="#000000" font-family="Verdana" font-size="14" lengthAdjust="spacing" textLength="115" x="30" y="411.792">descricao : texto</text><ellipse cx="23" cy="424.7422" fill="#FFFFFF" rx="3" ry="3" style="stroke:#000000;stroke-width:1.0;"/><text fill="#000000" font-family="Verdana" font-size="14" lengthAdjust="spacing" textLength="73" x="30" y="428.0889">data : data</text><ellipse cx="23" cy="441.0391" fill="#FFFFFF" rx="3" ry="3" style="stroke:#000000;stroke-width:1.0;"/><text fill="#000000" font-family="Verdana" font-size="14" lengthAdjust="spacing" textLength="152" x="30" y="444.3857">criado_em : data_hora</text><ellipse cx="23" cy="457.3359" fill="#FFFFFF" rx="3" ry="3" style="stroke:#000000;stroke-width:1.0;"/><text fill="#000000" font-family="Verdana" font-size="14" lengthAdjust="spacing" textLength="180" x="30" y="460.6826">atualizado_em : data_hora</text></g><!--class RECEITA--><g id="elem_RECEITA"><rect codeLine="27" fill="#FFFFFF" height="158.0781" id="RECEITA" rx="2.5" ry="2.5" style="stroke:#000000;stroke-width:1.0;" width="204" x="251" y="301.6094"/><ellipse cx="319.75" cy="315.6094" fill="#FFFFFF" rx="9" ry="9" style="stroke:#000000;stroke-width:1.0;"/><path d="M315.5156,310.7031 L315.5156,312.0938 L316.9219,312.0938 L316.9219,319.2188 L315.5156,319.2188 L315.5156,320.6094 L324.1563,320.6094 L324.1563,316.9219 L322.7344,316.9219 L322.6563,319.2188 L318.4063,319.2188 L318.4063,316.0938 L320.4063,316.0938 L320.4063,317.2969 L321.8281,317.2969 L321.8281,313.4688 L320.4063,313.4688 L320.4063,314.6875 L318.4063,314.6875 L318.4063,312.0938 L322.5,312.0938 L322.6563,314.375 L324.0625,314.375 L323.9844,310.7031 L315.5156,310.7031 Z " fill="#000000"/><text fill="#000000" font-family="Verdana" font-size="14" lengthAdjust="spacing" textLength="59" x="337.25" y="320.4561">RECEITA</text><line style="stroke:#000000;stroke-width:1.0;" x1="252" x2="454" y1="329.6094" y2="329.6094"/><ellipse cx="262" cy="343.2578" fill="#FFFFFF" rx="3" ry="3" style="stroke:#000000;stroke-width:1.0;"/><text fill="#000000" font-family="Verdana" font-size="14" lengthAdjust="spacing" textLength="95" x="269" y="346.6045">id : uuid &#171;PK&#187;</text><line style="stroke:#000000;stroke-width:1.0;" x1="252" x2="454" y1="353.9063" y2="353.9063"/><ellipse cx="262" cy="367.5547" fill="#FFFFFF" rx="3" ry="3" style="stroke:#000000;stroke-width:1.0;"/><text fill="#000000" font-family="Verdana" font-size="14" lengthAdjust="spacing" textLength="152" x="269" y="370.9014">usuario_id : uuid &#171;FK&#187;</text><ellipse cx="262" cy="383.8516" fill="#FFFFFF" rx="3" ry="3" style="stroke:#000000;stroke-width:1.0;"/><text fill="#000000" font-family="Verdana" font-size="14" lengthAdjust="spacing" textLength="98" x="269" y="387.1982">valor : decimal</text><ellipse cx="262" cy="400.1484" fill="#FFFFFF" rx="3" ry="3" style="stroke:#000000;stroke-width:1.0;"/><text fill="#000000" font-family="Verdana" font-size="14" lengthAdjust="spacing" textLength="115" x="269" y="403.4951">descricao : texto</text><ellipse cx="262" cy="416.4453" fill="#FFFFFF" rx="3" ry="3" style="stroke:#000000;stroke-width:1.0;"/><text fill="#000000" font-family="Verdana" font-size="14" lengthAdjust="spacing" textLength="73" x="269" y="419.792">data : data</text><ellipse cx="262" cy="432.7422" fill="#FFFFFF" rx="3" ry="3" style="stroke:#000000;stroke-width:1.0;"/><text fill="#000000" font-family="Verdana" font-size="14" lengthAdjust="spacing" textLength="152" x="269" y="436.0889">criado_em : data_hora</text><ellipse cx="262" cy="449.0391" fill="#FFFFFF" rx="3" ry="3" style="stroke:#000000;stroke-width:1.0;"/><text fill="#000000" font-family="Verdana" font-size="14" lengthAdjust="spacing" textLength="180" x="269" y="452.3857">atualizado_em : data_hora</text></g><!--class CATEGORIA--><g id="elem_CATEGORIA"><rect codeLine="38" fill="#FFFFFF" height="141.7813" id="CATEGORIA" rx="2.5" ry="2.5" style="stroke:#000000;stroke-width:1.0;" width="204" x="217" y="544.6094"/><ellipse cx="274.75" cy="558.6094" fill="#FFFFFF" rx="9" ry="9" style="stroke:#000000;stroke-width:1.0;"/><path d="M270.5156,553.7031 L270.5156,555.0938 L271.9219,555.0938 L271.9219,562.2188 L270.5156,562.2188 L270.5156,563.6094 L279.1563,563.6094 L279.1563,559.9219 L277.7344,559.9219 L277.6563,562.2188 L273.4063,562.2188 L273.4063,559.0938 L275.4063,559.0938 L275.4063,560.2969 L276.8281,560.2969 L276.8281,556.4688 L275.4063,556.4688 L275.4063,557.6875 L273.4063,557.6875 L273.4063,555.0938 L277.5,555.0938 L277.6563,557.375 L279.0625,557.375 L278.9844,553.7031 L270.5156,553.7031 Z " fill="#000000"/><text fill="#000000" font-family="Verdana" font-size="14" lengthAdjust="spacing" textLength="81" x="292.25" y="563.4561">CATEGORIA</text><line style="stroke:#000000;stroke-width:1.0;" x1="218" x2="420" y1="572.6094" y2="572.6094"/><ellipse cx="228" cy="586.2578" fill="#FFFFFF" rx="3" ry="3" style="stroke:#000000;stroke-width:1.0;"/><text fill="#000000" font-family="Verdana" font-size="14" lengthAdjust="spacing" textLength="95" x="235" y="589.6045">id : uuid &#171;PK&#187;</text><line style="stroke:#000000;stroke-width:1.0;" x1="218" x2="420" y1="596.9063" y2="596.9063"/><ellipse cx="228" cy="610.5547" fill="#FFFFFF" rx="3" ry="3" style="stroke:#000000;stroke-width:1.0;"/><text fill="#000000" font-family="Verdana" font-size="14" lengthAdjust="spacing" textLength="152" x="235" y="613.9014">usuario_id : uuid &#171;FK&#187;</text><ellipse cx="228" cy="626.8516" fill="#FFFFFF" rx="3" ry="3" style="stroke:#000000;stroke-width:1.0;"/><text fill="#000000" font-family="Verdana" font-size="14" lengthAdjust="spacing" textLength="88" x="235" y="630.1982">nome : texto</text><ellipse cx="228" cy="643.1484" fill="#FFFFFF" rx="3" ry="3" style="stroke:#000000;stroke-width:1.0;"/><text fill="#000000" font-family="Verdana" font-size="14" lengthAdjust="spacing" textLength="70" x="235" y="646.4951">cor : texto</text><ellipse cx="228" cy="659.4453" fill="#FFFFFF" rx="3" ry="3" style="stroke:#000000;stroke-width:1.0;"/><text fill="#000000" font-family="Verdana" font-size="14" lengthAdjust="spacing" textLength="152" x="235" y="662.792">criado_em : data_hora</text><ellipse cx="228" cy="675.7422" fill="#FFFFFF" rx="3" ry="3" style="stroke:#000000;stroke-width:1.0;"/><text fill="#000000" font-family="Verdana" font-size="14" lengthAdjust="spacing" textLength="180" x="235" y="679.0889">atualizado_em : data_hora</text></g><!--class SALDO_CONSOLIDADO--><g id="elem_SALDO_CONSOLIDADO"><rect codeLine="48" fill="#FFFFFF" height="174.375" id="SALDO_CONSOLIDADO" rx="2.5" ry="2.5" style="stroke:#000000;stroke-width:1.0;" width="204" x="585" y="293.6094"/><ellipse cx="606.55" cy="307.6094" fill="#FFFFFF" rx="9" ry="9" style="stroke:#000000;stroke-width:1.0;"/><path d="M602.3156,302.7031 L602.3156,304.0938 L603.7219,304.0938 L603.7219,311.2188 L602.3156,311.2188 L602.3156,312.6094 L610.9563,312.6094 L610.9563,308.9219 L609.5344,308.9219 L609.4563,311.2188 L605.2063,311.2188 L605.2063,308.0938 L607.2063,308.0938 L607.2063,309.2969 L608.6281,309.2969 L608.6281,305.4688 L607.2063,305.4688 L607.2063,306.6875 L605.2063,306.6875 L605.2063,304.0938 L609.3,304.0938 L609.4563,306.375 L610.8625,306.375 L610.7844,302.7031 L602.3156,302.7031 Z " fill="#000000"/><text fill="#000000" font-family="Verdana" font-size="14" lengthAdjust="spacing" textLength="157" x="620.45" y="312.4561">SALDO_CONSOLIDADO</text><line style="stroke:#000000;stroke-width:1.0;" x1="586" x2="788" y1="321.6094" y2="321.6094"/><ellipse cx="596" cy="335.2578" fill="#FFFFFF" rx="3" ry="3" style="stroke:#000000;stroke-width:1.0;"/><text fill="#000000" font-family="Verdana" font-size="14" lengthAdjust="spacing" textLength="95" x="603" y="338.6045">id : uuid &#171;PK&#187;</text><line style="stroke:#000000;stroke-width:1.0;" x1="586" x2="788" y1="345.9063" y2="345.9063"/><ellipse cx="596" cy="359.5547" fill="#FFFFFF" rx="3" ry="3" style="stroke:#000000;stroke-width:1.0;"/><text fill="#000000" font-family="Verdana" font-size="14" lengthAdjust="spacing" textLength="152" x="603" y="362.9014">usuario_id : uuid &#171;FK&#187;</text><ellipse cx="596" cy="375.8516" fill="#FFFFFF" rx="3" ry="3" style="stroke:#000000;stroke-width:1.0;"/><text fill="#000000" font-family="Verdana" font-size="14" lengthAdjust="spacing" textLength="135" x="603" y="379.1982">valor_total : decimal</text><ellipse cx="596" cy="392.1484" fill="#FFFFFF" rx="3" ry="3" style="stroke:#000000;stroke-width:1.0;"/><text fill="#000000" font-family="Verdana" font-size="14" lengthAdjust="spacing" textLength="149" x="603" y="395.4951">mes_referencia : data</text><ellipse cx="596" cy="408.4453" fill="#FFFFFF" rx="3" ry="3" style="stroke:#000000;stroke-width:1.0;"/><text fill="#000000" font-family="Verdana" font-size="14" lengthAdjust="spacing" textLength="158" x="603" y="411.792">total_receitas : decimal</text><ellipse cx="596" cy="424.7422" fill="#FFFFFF" rx="3" ry="3" style="stroke:#000000;stroke-width:1.0;"/><text fill="#000000" font-family="Verdana" font-size="14" lengthAdjust="spacing" textLength="171" x="603" y="428.0889">total_despesas : decimal</text><ellipse cx="596" cy="441.0391" fill="#FFFFFF" rx="3" ry="3" style="stroke:#000000;stroke-width:1.0;"/><text fill="#000000" font-family="Verdana" font-size="14" lengthAdjust="spacing" textLength="152" x="603" y="444.3857">criado_em : data_hora</text><ellipse cx="596" cy="457.3359" fill="#FFFFFF" rx="3" ry="3" style="stroke:#000000;stroke-width:1.0;"/><text fill="#000000" font-family="Verdana" font-size="14" lengthAdjust="spacing" textLength="180" x="603" y="460.6826">atualizado_em : data_hora</text></g><!--link USUARIO to DESPESA--><g id="link_USUARIO_DESPESA"><path codeLine="60" d="M330.184,219.2945 C291.764,247.7845 269.0094,264.6691 230.6094,293.1391 " fill="none" id="USUARIO-DESPESA" style="stroke:#000000;stroke-width:1.0;"/><line style="stroke:#000000;stroke-width:1.0;" x1="331.0144" x2="335.7796" y1="213.6989" y2="220.1249"/><line style="stroke:#000000;stroke-width:1.0;" x1="328.6047" x2="333.3698" y1="215.4859" y2="221.9119"/><line style="stroke:#000000;stroke-width:1.0;" x1="330.184" x2="336.61" y1="219.2945" y2="214.5294"/><line style="stroke:#000000;stroke-width:1.0;" x1="222.5764" x2="219.7234" y1="299.0948" y2="308.6792"/><line style="stroke:#000000;stroke-width:1.0;" x1="222.5764" x2="212.5766" y1="299.0948" y2="299.0396"/><line style="stroke:#000000;stroke-width:1.0;" x1="222.5764" x2="216.15" y1="299.0948" y2="303.8594"/><ellipse cx="227.3962" cy="295.5214" fill="none" rx="4" ry="4" style="stroke:#000000;stroke-width:1.0;"/><text fill="#000000" font-family="Verdana" font-size="13" lengthAdjust="spacing" textLength="23" x="288" y="259.6763">cria</text></g><!--link USUARIO to RECEITA--><g id="link_USUARIO_RECEITA"><path codeLine="61" d="M408.3912,224.394 C398.7312,251.464 396.6397,257.3165 386.9797,284.3865 " fill="none" id="USUARIO-RECEITA" style="stroke:#000000;stroke-width:1.0;"/><line style="stroke:#000000;stroke-width:1.0;" x1="405.9683" x2="413.5029" y1="219.2823" y2="221.9711"/><line style="stroke:#000000;stroke-width:1.0;" x1="404.96" x2="412.4947" y1="222.1078" y2="224.7966"/><line style="stroke:#000000;stroke-width:1.0;" x1="408.3912" x2="411.08" y1="224.394" y2="216.8594"/><line style="stroke:#000000;stroke-width:1.0;" x1="383.6188" x2="386.581" y1="293.8047" y2="303.3559"/><line style="stroke:#000000;stroke-width:1.0;" x1="383.6188" x2="375.279" y1="293.8047" y2="299.3228"/><line style="stroke:#000000;stroke-width:1.0;" x1="383.6188" x2="380.93" y1="293.8047" y2="301.3394"/><ellipse cx="385.6353" cy="288.1538" fill="none" rx="4" ry="4" style="stroke:#000000;stroke-width:1.0;"/><text fill="#000000" font-family="Verdana" font-size="13" lengthAdjust="spacing" textLength="23" x="400" y="259.6763">cria</text></g><!--link USUARIO to CATEGORIA--><g id="link_USUARIO_CATEGORIA"><path codeLine="62" d="M469.8182,224.2981 C490.2482,293.0681 506.36,386.9394 472,467.6094 C459.66,496.5894 451.4726,510.1313 428.7626,531.9413 " fill="none" id="USUARIO-CATEGORIA" style="stroke:#000000;stroke-width:1.0;"/><line style="stroke:#000000;stroke-width:1.0;" x1="464.8447" x2="472.5135" y1="221.6029" y2="219.3246"/><line style="stroke:#000000;stroke-width:1.0;" x1="465.6991" x2="473.3678" y1="224.4786" y2="222.2004"/><line style="stroke:#000000;stroke-width:1.0;" x1="469.8182" x2="467.54" y1="224.2981" y2="216.6294"/><line style="stroke:#000000;stroke-width:1.0;" x1="421.55" x2="419.936" y1="538.868" y2="548.7369"/><line style="stroke:#000000;stroke-width:1.0;" x1="421.55" x2="411.624" y1="538.868" y2="540.0819"/><line style="stroke:#000000;stroke-width:1.0;" x1="421.55" x2="415.78" y1="538.868" y2="544.4094"/><ellipse cx="425.8776" cy="534.712" fill="none" rx="4" ry="4" style="stroke:#000000;stroke-width:1.0;"/><text fill="#000000" font-family="Verdana" font-size="13" lengthAdjust="spacing" textLength="23" x="493" y="385.1763">cria</text></g><!--link USUARIO to SALDO_CONSOLIDADO--><g id="link_USUARIO_SALDO_CONSOLIDADO"><path codeLine="63" d="M525.8701,222.2615 C536.2701,232.3215 541.02,236.9194 551,246.6094 C566.52,261.6794 570.1275,265.1577 586.0575,280.7277 " fill="none" id="USUARIO-SALDO_CONSOLIDADO" style="stroke:#000000;stroke-width:1.0;"/><line style="stroke:#000000;stroke-width:1.0;" x1="520.214" x2="525.7761" y1="222.3554" y2="216.6054"/><line style="stroke:#000000;stroke-width:1.0;" x1="522.3703" x2="527.9323" y1="224.4412" y2="218.6912"/><line style="stroke:#000000;stroke-width:1.0;" x1="525.8701" x2="520.12" y1="222.2615" y2="216.6994"/><line style="stroke:#000000;stroke-width:1.0;" x1="593.2089" x2="603.1239" y1="287.7175" y2="289.0185"/><line style="stroke:#000000;stroke-width:1.0;" x1="593.2089" x2="594.7361" y1="287.7175" y2="297.6002"/><line style="stroke:#000000;stroke-width:1.0;" x1="593.2089" x2="598.93" y1="287.7175" y2="293.3094"/><ellipse cx="588.918" cy="283.5237" fill="none" rx="4" ry="4" style="stroke:#000000;stroke-width:1.0;"/><text fill="#000000" font-family="Verdana" font-size="13" lengthAdjust="spacing" textLength="41" x="566" y="259.6763">possui</text></g><!--link DESPESA to CATEGORIA--><g id="link_DESPESA_CATEGORIA"><path codeLine="64" d="M201.6394,481.2239 C223.8794,506.5039 230.7553,514.3134 252.0053,538.4634 " fill="none" id="DESPESA-CATEGORIA" style="stroke:#000000;stroke-width:1.0;"/><line style="stroke:#000000;stroke-width:1.0;" x1="195.0342" x2="185.2452" y1="473.7158" y2="471.6725"/><line style="stroke:#000000;stroke-width:1.0;" x1="195.0342" x2="194.2548" y1="473.7158" y2="463.7463"/><line style="stroke:#000000;stroke-width:1.0;" x1="195.0342" x2="189.75" y1="473.7158" y2="467.7094"/><ellipse cx="198.9973" cy="478.2207" fill="none" rx="4" ry="4" style="stroke:#000000;stroke-width:1.0;"/><line style="stroke:#000000;stroke-width:1.0;" x1="257.6506" x2="251.6447" y1="538.824" y2="544.1088"/><line style="stroke:#000000;stroke-width:1.0;" x1="255.6688" x2="249.6629" y1="536.5718" y2="541.8565"/><line style="stroke:#000000;stroke-width:1.0;" x1="252.0053" x2="257.29" y1="538.4634" y2="544.4694"/><text fill="#000000" font-family="Verdana" font-size="13" lengthAdjust="spacing" textLength="72" x="230" y="510.6763">pertence_a</text></g><!--SRC=[nLJRQeD047ttAxPvBFW39GGasY8DDMZoB8DEaeMzoEvQsiRyUqTZsvWBXIRG5yLpPiPppbxkt0Obiae0LvxZJY0BEQmDI62HSho44lqK1HHSAv2edFOyUdBtpaRBR1caSJ9YMu-nUyPBzi3gcbxZyVnvCY7Gzpi69N11fCCtwcyHYse3-GRiPW0hJM8EWGhDgcj5LSiEAGo7KkSe2Ip1qH1je6F0rI3unnbszwCvZB9vb0M_Qwvj3ORh_B3YSLz18i3XMfEIy_Gh26rQ1LXm2QB3IhGalG0zyDTgxANUmbqQJQDuSQsxVvC_3HRHKvB6rneusKP5v-VW-pgTMJ0BatoQl6J9B0w3CBb5uBdJ3iHHx19jRd251bN11r5trSGLo1tOexOzIMjMeJqX_sY-F-siQNnVRrb_aAYgdNVCzXln0lkzpXVuatofhjBMrjpx-krE-txJ32RHNU4e9ipX4m00]--></g></svg>