<?xml version="1.0" encoding="us-ascii" standalone="no"?><svg xmlns="http://www.w3.org/2000/svg" xmlns:xlink="http://www.w3.org/1999/xlink" contentStyleType="text/css" height="903px" preserveAspectRatio="none" style="width:2392px;height:903px;background:#FFFFFF;" version="1.1" viewBox="0 0 2392 903" width="2392px" zoomAndPan="magnify"><defs/><g><text fill="#000000" font-family="Verdana" font-size="22" font-weight="bold" lengthAdjust="spacing" textLength="267" x="1061" y="35.4209">Fluxograma Principal</text><ellipse cx="1200" cy="61.6094" fill="#FFFFFF" rx="10" ry="10" style="stroke:#000000;stroke-width:1.0;"/><rect fill="#FFFFFF" height="33.9688" rx="12.5" ry="12.5" style="stroke:#000000;stroke-width:1.0;" width="109" x="1145.5" y="140.0117"/><text fill="#000000" font-family="Verdana" font-size="12" lengthAdjust="spacing" textLength="89" x="1155.5" y="161.1504">Login/Registro</text><polygon fill="#FFFFFF" points="1200,193.9805,1212,205.9805,1200,217.9805,1188,205.9805,1200,193.9805" style="stroke:#000000;stroke-width:1.0;"/><polygon fill="#FFFFFF" points="1142.5,277.8984,1257.5,277.8984,1269.5,289.8984,1257.5,301.8984,1142.5,301.8984,1130.5,289.8984,1142.5,277.8984" style="stroke:#000000;stroke-width:1.0;"/><text fill="#000000" font-family="Verdana" font-size="11" lengthAdjust="spacing" textLength="115" x="1142.5" y="293.7065">Autentica&#231;&#227;o v&#225;lida?</text><text fill="#000000" font-family="Verdana" font-size="11" lengthAdjust="spacing" textLength="21" x="1269.5" y="287.3042">n&#227;o</text><polygon fill="#FFFFFF" points="1140,91.6094,1260,91.6094,1272,103.6094,1260,115.6094,1140,115.6094,1128,103.6094,1140,91.6094" style="stroke:#000000;stroke-width:1.0;"/><text fill="#000000" font-family="Verdana" font-size="11" lengthAdjust="spacing" textLength="21" x="1204" y="125.8198">n&#227;o</text><text fill="#000000" font-family="Verdana" font-size="11" lengthAdjust="spacing" textLength="120" x="1140" y="107.4175">Usu&#225;rio Autenticado?</text><polygon fill="#FFFFFF" points="1200,325.7974,1212,337.7974,1200,349.7974,1188,337.7974,1200,325.7974" style="stroke:#000000;stroke-width:1.0;"/><text fill="#000000" font-family="Verdana" font-size="11" lengthAdjust="spacing" textLength="21" x="1206" y="323.2031">sim</text><rect fill="#FFFFFF" height="33.9688" rx="12.5" ry="12.5" style="stroke:#000000;stroke-width:1.0;" width="115" x="1142.5" y="369.7974"/><text fill="#000000" font-family="Verdana" font-size="12" lengthAdjust="spacing" textLength="95" x="1152.5" y="390.936">Painel Principal</text><rect fill="#000000" height="6" rx="2.5" ry="2.5" style="stroke:#000000;stroke-width:1.0;" width="2319" x="40" y="484.5708"/><rect fill="#FFFFFF" height="33.9688" rx="12.5" ry="12.5" style="stroke:#000000;stroke-width:1.0;" width="147" x="277" y="564.5396"/><text fill="#000000" font-family="Verdana" font-size="12" lengthAdjust="spacing" textLength="127" x="287" y="585.6782">Gerenciar Despesas</text><rect fill="#000000" height="6" rx="2.5" ry="2.5" style="stroke:#000000;stroke-width:1.0;" width="597" x="52" y="633.5083"/><rect fill="#FFFFFF" height="33.9688" rx="12.5" ry="12.5" style="stroke:#000000;stroke-width:1.0;" width="137" x="64" y="659.5083"/><text fill="#000000" font-family="Verdana" font-size="12" lengthAdjust="spacing" textLength="117" x="74" y="680.647">Adicionar Despesa</text><rect fill="#FFFFFF" height="33.9688" rx="12.5" ry="12.5" style="stroke:#000000;stroke-width:1.0;" width="119" x="73" y="728.4771"/><text fill="#000000" font-family="Verdana" font-size="12" lengthAdjust="spacing" textLength="99" x="83" y="749.6157">Voltar ao Painel</text><rect fill="#FFFFFF" height="33.9688" rx="12.5" ry="12.5" style="stroke:#000000;stroke-width:1.0;" width="116" x="212.5" y="659.5083"/><text fill="#000000" font-family="Verdana" font-size="12" lengthAdjust="spacing" textLength="96" x="222.5" y="680.647">Editar Despesa</text><rect fill="#FFFFFF" height="33.9688" rx="12.5" ry="12.5" style="stroke:#000000;stroke-width:1.0;" width="119" x="211" y="728.4771"/><text fill="#000000" font-family="Verdana" font-size="12" lengthAdjust="spacing" textLength="99" x="221" y="749.6157">Voltar ao Painel</text><rect fill="#FFFFFF" height="33.9688" rx="12.5" ry="12.5" style="stroke:#000000;stroke-width:1.0;" width="119" x="358" y="659.5083"/><text fill="#000000" font-family="Verdana" font-size="12" lengthAdjust="spacing" textLength="99" x="368" y="680.647">Excluir Despesa</text><rect fill="#FFFFFF" height="33.9688" rx="12.5" ry="12.5" style="stroke:#000000;stroke-width:1.0;" width="119" x="358" y="728.4771"/><text fill="#000000" font-family="Verdana" font-size="12" lengthAdjust="spacing" textLength="99" x="368" y="749.6157">Voltar ao Painel</text><rect fill="#FFFFFF" height="33.9688" rx="12.5" ry="12.5" style="stroke:#000000;stroke-width:1.0;" width="150" x="487" y="659.5083"/><text fill="#000000" font-family="Verdana" font-size="12" lengthAdjust="spacing" textLength="130" x="497" y="680.647">Categorizar Despesa</text><rect fill="#FFFFFF" height="33.9688" rx="12.5" ry="12.5" style="stroke:#000000;stroke-width:1.0;" width="119" x="502.5" y="728.4771"/><text fill="#000000" font-family="Verdana" font-size="12" lengthAdjust="spacing" textLength="99" x="512.5" y="749.6157">Voltar ao Painel</text><rect fill="#000000" height="6" rx="2.5" ry="2.5" style="stroke:#000000;stroke-width:1.0;" width="597" x="52" y="782.4458"/><rect fill="#FFFFFF" height="33.9688" rx="12.5" ry="12.5" style="stroke:#000000;stroke-width:1.0;" width="139" x="810" y="564.5396"/><text fill="#000000" font-family="Verdana" font-size="12" lengthAdjust="spacing" textLength="119" x="820" y="585.6782">Gerenciar Receitas</text><rect fill="#000000" height="6" rx="2.5" ry="2.5" style="stroke:#000000;stroke-width:1.0;" width="431" x="659" y="633.5083"/><rect fill="#FFFFFF" height="33.9688" rx="12.5" ry="12.5" style="stroke:#000000;stroke-width:1.0;" width="129" x="671" y="659.5083"/><text fill="#000000" font-family="Verdana" font-size="12" lengthAdjust="spacing" textLength="109" x="681" y="680.647">Adicionar Receita</text><rect fill="#FFFFFF" height="33.9688" rx="12.5" ry="12.5" style="stroke:#000000;stroke-width:1.0;" width="119" x="676" y="728.4771"/><text fill="#000000" font-family="Verdana" font-size="12" lengthAdjust="spacing" textLength="99" x="686" y="749.6157">Voltar ao Painel</text><rect fill="#FFFFFF" height="33.9688" rx="12.5" ry="12.5" style="stroke:#000000;stroke-width:1.0;" width="108" x="830.5" y="659.5083"/><text fill="#000000" font-family="Verdana" font-size="12" lengthAdjust="spacing" textLength="88" x="840.5" y="680.647">Editar Receita</text><rect fill="#FFFFFF" height="33.9688" rx="12.5" ry="12.5" style="stroke:#000000;stroke-width:1.0;" width="119" x="825" y="728.4771"/><text fill="#000000" font-family="Verdana" font-size="12" lengthAdjust="spacing" textLength="99" x="835" y="749.6157">Voltar ao Painel</text><rect fill="#FFFFFF" height="33.9688" rx="12.5" ry="12.5" style="stroke:#000000;stroke-width:1.0;" width="111" x="963" y="659.5083"/><text fill="#000000" font-family="Verdana" font-size="12" lengthAdjust="spacing" textLength="91" x="973" y="680.647">Excluir Receita</text><rect fill="#FFFFFF" height="33.9688" rx="12.5" ry="12.5" style="stroke:#000000;stroke-width:1.0;" width="119" x="959" y="728.4771"/><text fill="#000000" font-family="Verdana" font-size="12" lengthAdjust="spacing" textLength="99" x="969" y="749.6157">Voltar ao Painel</text><rect fill="#000000" height="6" rx="2.5" ry="2.5" style="stroke:#000000;stroke-width:1.0;" width="431" x="659" y="782.4458"/><rect fill="#FFFFFF" height="33.9688" rx="12.5" ry="12.5" style="stroke:#000000;stroke-width:1.0;" width="117" x="1206.5" y="564.5396"/><text fill="#000000" font-family="Verdana" font-size="12" lengthAdjust="spacing" textLength="97" x="1216.5" y="585.6782">Visualizar Saldo</text><rect fill="#000000" height="6" rx="2.5" ry="2.5" style="stroke:#000000;stroke-width:1.0;" width="292" x="1118" y="633.5083"/><rect fill="#FFFFFF" height="33.9688" rx="12.5" ry="12.5" style="stroke:#000000;stroke-width:1.0;" width="116" x="1133.5" y="659.5083"/><text fill="#000000" font-family="Verdana" font-size="12" lengthAdjust="spacing" textLength="96" x="1143.5" y="680.647">Ver Saldo Atual</text><rect fill="#FFFFFF" height="33.9688" rx="12.5" ry="12.5" style="stroke:#000000;stroke-width:1.0;" width="119" x="1132" y="728.4771"/><text fill="#000000" font-family="Verdana" font-size="12" lengthAdjust="spacing" textLength="99" x="1142" y="749.6157">Voltar ao Painel</text><rect fill="#FFFFFF" height="33.9688" rx="12.5" ry="12.5" style="stroke:#000000;stroke-width:1.0;" width="100" x="1288.5" y="659.5083"/><text fill="#000000" font-family="Verdana" font-size="12" lengthAdjust="spacing" textLength="80" x="1298.5" y="680.647">Ver Hist&#243;rico</text><rect fill="#FFFFFF" height="33.9688" rx="12.5" ry="12.5" style="stroke:#000000;stroke-width:1.0;" width="119" x="1279" y="728.4771"/><text fill="#000000" font-family="Verdana" font-size="12" lengthAdjust="spacing" textLength="99" x="1289" y="749.6157">Voltar ao Painel</text><rect fill="#000000" height="6" rx="2.5" ry="2.5" style="stroke:#000000;stroke-width:1.0;" width="292" x="1118" y="782.4458"/><rect fill="#FFFFFF" height="33.9688" rx="12.5" ry="12.5" style="stroke:#000000;stroke-width:1.0;" width="83" x="1838.5" y="510.5708"/><text fill="#000000" font-family="Verdana" font-size="12" lengthAdjust="spacing" textLength="63" x="1848.5" y="531.7095">Relat&#243;rios</text><rect fill="#000000" height="6" rx="2.5" ry="2.5" style="stroke:#000000;stroke-width:1.0;" width="927" x="1420" y="573.0239"/><rect fill="#FFFFFF" height="33.9688" rx="12.5" ry="12.5" style="stroke:#000000;stroke-width:1.0;" width="153" x="1608" y="599.0239"/><text fill="#000000" font-family="Verdana" font-size="12" lengthAdjust="spacing" textLength="133" x="1618" y="620.1626">Relat&#243;rio por Per&#237;odo</text><rect fill="#000000" height="6" rx="2.5" ry="2.5" style="stroke:#000000;stroke-width:1.0;" width="508" x="1432" y="667.9927"/><rect fill="#FFFFFF" height="33.9688" rx="12.5" ry="12.5" style="stroke:#000000;stroke-width:1.0;" width="154" x="1444" y="693.9927"/><text fill="#000000" font-family="Verdana" font-size="12" lengthAdjust="spacing" textLength="134" x="1454" y="715.1313">Despesas no Per&#237;odo</text><rect fill="#FFFFFF" height="33.9688" rx="12.5" ry="12.5" style="stroke:#000000;stroke-width:1.0;" width="119" x="1461.5" y="762.9614"/><text fill="#000000" font-family="Verdana" font-size="12" lengthAdjust="spacing" textLength="99" x="1471.5" y="784.1001">Voltar ao Painel</text><rect fill="#FFFFFF" height="33.9688" rx="12.5" ry="12.5" style="stroke:#000000;stroke-width:1.0;" width="146" x="1610" y="693.9927"/><text fill="#000000" font-family="Verdana" font-size="12" lengthAdjust="spacing" textLength="126" x="1620" y="715.1313">Receitas no Per&#237;odo</text><rect fill="#FFFFFF" height="33.9688" rx="12.5" ry="12.5" style="stroke:#000000;stroke-width:1.0;" width="119" x="1623.5" y="762.9614"/><text fill="#000000" font-family="Verdana" font-size="12" lengthAdjust="spacing" textLength="99" x="1633.5" y="784.1001">Voltar ao Painel</text><rect fill="#FFFFFF" height="33.9688" rx="12.5" ry="12.5" style="stroke:#000000;stroke-width:1.0;" width="157" x="1771" y="693.9927"/><text fill="#000000" font-family="Verdana" font-size="12" lengthAdjust="spacing" textLength="137" x="1781" y="715.1313">Comparativo Per&#237;odos</text><rect fill="#FFFFFF" height="33.9688" rx="12.5" ry="12.5" style="stroke:#000000;stroke-width:1.0;" width="119" x="1790" y="762.9614"/><text fill="#000000" font-family="Verdana" font-size="12" lengthAdjust="spacing" textLength="99" x="1800" y="784.1001">Voltar ao Painel</text><rect fill="#000000" height="6" rx="2.5" ry="2.5" style="stroke:#000000;stroke-width:1.0;" width="508" x="1432" y="816.9302"/><rect fill="#FFFFFF" height="33.9688" rx="12.5" ry="12.5" style="stroke:#000000;stroke-width:1.0;" width="166" x="2059.5" y="599.0239"/><text fill="#000000" font-family="Verdana" font-size="12" lengthAdjust="spacing" textLength="146" x="2069.5" y="620.1626">Relat&#243;rio por Categoria</text><rect fill="#000000" height="6" rx="2.5" ry="2.5" style="stroke:#000000;stroke-width:1.0;" width="385" x="1950" y="667.9927"/><rect fill="#FFFFFF" height="33.9688" rx="12.5" ry="12.5" style="stroke:#000000;stroke-width:1.0;" width="172" x="1962" y="693.9927"/><text fill="#000000" font-family="Verdana" font-size="12" lengthAdjust="spacing" textLength="152" x="1972" y="715.1313">Despesas por Categoria</text><rect fill="#FFFFFF" height="33.9688" rx="12.5" ry="12.5" style="stroke:#000000;stroke-width:1.0;" width="119" x="1988.5" y="762.9614"/><text fill="#000000" font-family="Verdana" font-size="12" lengthAdjust="spacing" textLength="99" x="1998.5" y="784.1001">Voltar ao Painel</text><rect fill="#FFFFFF" height="33.9688" rx="12.5" ry="12.5" style="stroke:#000000;stroke-width:1.0;" width="161" x="2162" y="693.9927"/><text fill="#000000" font-family="Verdana" font-size="12" lengthAdjust="spacing" textLength="141" x="2172" y="715.1313">Evolu&#231;&#227;o da Categoria</text><rect fill="#FFFFFF" height="33.9688" rx="12.5" ry="12.5" style="stroke:#000000;stroke-width:1.0;" width="119" x="2183" y="762.9614"/><text fill="#000000" font-family="Verdana" font-size="12" lengthAdjust="spacing" textLength="99" x="2193" y="784.1001">Voltar ao Painel</text><rect fill="#000000" height="6" rx="2.5" ry="2.5" style="stroke:#000000;stroke-width:1.0;" width="385" x="1950" y="816.9302"/><rect fill="#000000" height="6" rx="2.5" ry="2.5" style="stroke:#000000;stroke-width:1.0;" width="927" x="1420" y="842.9302"/><rect fill="#000000" height="6" rx="2.5" ry="2.5" style="stroke:#000000;stroke-width:1.0;" width="2319" x="40" y="868.9302"/><polygon fill="#FFFFFF" points="1132,423.7661,1268,423.7661,1280,435.7661,1268,447.7661,1132,447.7661,1120,435.7661,1132,423.7661" style="stroke:#000000;stroke-width:1.0;"/><text fill="#000000" font-family="Verdana" font-size="11" lengthAdjust="spacing" textLength="21" x="1204" y="457.9766">sim</text><text fill="#000000" font-family="Verdana" font-size="11" lengthAdjust="spacing" textLength="136" x="1132" y="439.5742">Continuar na aplica&#231;&#227;o?</text><text fill="#000000" font-family="Verdana" font-size="11" lengthAdjust="spacing" textLength="21" x="1099" y="433.1719">n&#227;o</text><ellipse cx="19" cy="482.7661" fill="none" rx="11" ry="11" style="stroke:#000000;stroke-width:1.0;"/><ellipse cx="19" cy="482.7661" fill="#FFFFFF" rx="6" ry="6" style="stroke:#000000;stroke-width:1.0;"/><line style="stroke:#000000;stroke-width:1.0;" x1="1200" x2="1200" y1="217.9805" y2="277.8984"/><polygon fill="#000000" points="1196,267.8984,1200,277.8984,1204,267.8984,1200,271.8984" style="stroke:#000000;stroke-width:1.0;"/><line style="stroke:#000000;stroke-width:1.0;" x1="1269.5" x2="1281.5" y1="289.8984" y2="289.8984"/><polygon fill="#000000" points="1277.5,257.8984,1281.5,247.8984,1285.5,257.8984,1281.5,253.8984" style="stroke:#000000;stroke-width:1.0;"/><line style="stroke:#000000;stroke-width:1.0;" x1="1281.5" x2="1281.5" y1="205.9805" y2="289.8984"/><line style="stroke:#000000;stroke-width:1.0;" x1="1281.5" x2="1212" y1="205.9805" y2="205.9805"/><polygon fill="#000000" points="1222,201.9805,1212,205.9805,1222,209.9805,1218,205.9805" style="stroke:#000000;stroke-width:1.0;"/><line style="stroke:#000000;stroke-width:1.0;" x1="1200" x2="1200" y1="173.9805" y2="193.9805"/><polygon fill="#000000" points="1196,183.9805,1200,193.9805,1204,183.9805,1200,187.9805" style="stroke:#000000;stroke-width:1.0;"/><line style="stroke:#000000;stroke-width:1.0;" x1="1200" x2="1200" y1="115.6094" y2="140.0117"/><polygon fill="#000000" points="1196,130.0117,1200,140.0117,1204,130.0117,1200,134.0117" style="stroke:#000000;stroke-width:1.0;"/><line style="stroke:#000000;stroke-width:1.0;" x1="1272" x2="1303.5" y1="103.6094" y2="103.6094"/><polygon fill="#000000" points="1299.5,227.8984,1303.5,237.8984,1307.5,227.8984,1303.5,231.8984" style="stroke:#000000;stroke-width:1.0;"/><line style="stroke:#000000;stroke-width:1.0;" x1="1303.5" x2="1303.5" y1="103.6094" y2="337.7974"/><line style="stroke:#000000;stroke-width:1.0;" x1="1303.5" x2="1212" y1="337.7974" y2="337.7974"/><polygon fill="#000000" points="1222,333.7974,1212,337.7974,1222,341.7974,1218,337.7974" style="stroke:#000000;stroke-width:1.0;"/><line style="stroke:#000000;stroke-width:1.0;" x1="1200" x2="1200" y1="301.8984" y2="325.7974"/><polygon fill="#000000" points="1196,315.7974,1200,325.7974,1204,315.7974,1200,319.7974" style="stroke:#000000;stroke-width:1.0;"/><line style="stroke:#000000;stroke-width:1.0;" x1="1200" x2="1200" y1="71.6094" y2="91.6094"/><polygon fill="#000000" points="1196,81.6094,1200,91.6094,1204,81.6094,1200,85.6094" style="stroke:#000000;stroke-width:1.0;"/><line style="stroke:#000000;stroke-width:1.0;" x1="1200" x2="1200" y1="349.7974" y2="369.7974"/><polygon fill="#000000" points="1196,359.7974,1200,369.7974,1204,359.7974,1200,363.7974" style="stroke:#000000;stroke-width:1.0;"/><line style="stroke:#000000;stroke-width:1.0;" x1="132.5" x2="132.5" y1="693.4771" y2="728.4771"/><polygon fill="#000000" points="128.5,718.4771,132.5,728.4771,136.5,718.4771,132.5,722.4771" style="stroke:#000000;stroke-width:1.0;"/><line style="stroke:#000000;stroke-width:1.0;" x1="270.5" x2="270.5" y1="693.4771" y2="728.4771"/><polygon fill="#000000" points="266.5,718.4771,270.5,728.4771,274.5,718.4771,270.5,722.4771" style="stroke:#000000;stroke-width:1.0;"/><line style="stroke:#000000;stroke-width:1.0;" x1="417.5" x2="417.5" y1="693.4771" y2="728.4771"/><polygon fill="#000000" points="413.5,718.4771,417.5,728.4771,421.5,718.4771,417.5,722.4771" style="stroke:#000000;stroke-width:1.0;"/><line style="stroke:#000000;stroke-width:1.0;" x1="562" x2="562" y1="693.4771" y2="728.4771"/><polygon fill="#000000" points="558,718.4771,562,728.4771,566,718.4771,562,722.4771" style="stroke:#000000;stroke-width:1.0;"/><line style="stroke:#000000;stroke-width:1.0;" x1="132.5" x2="132.5" y1="639.5083" y2="659.5083"/><polygon fill="#000000" points="128.5,649.5083,132.5,659.5083,136.5,649.5083,132.5,653.5083" style="stroke:#000000;stroke-width:1.0;"/><line style="stroke:#000000;stroke-width:1.0;" x1="270.5" x2="270.5" y1="639.5083" y2="659.5083"/><polygon fill="#000000" points="266.5,649.5083,270.5,659.5083,274.5,649.5083,270.5,653.5083" style="stroke:#000000;stroke-width:1.0;"/><line style="stroke:#000000;stroke-width:1.0;" x1="417.5" x2="417.5" y1="639.5083" y2="659.5083"/><polygon fill="#000000" points="413.5,649.5083,417.5,659.5083,421.5,649.5083,417.5,653.5083" style="stroke:#000000;stroke-width:1.0;"/><line style="stroke:#000000;stroke-width:1.0;" x1="562" x2="562" y1="639.5083" y2="659.5083"/><polygon fill="#000000" points="558,649.5083,562,659.5083,566,649.5083,562,653.5083" style="stroke:#000000;stroke-width:1.0;"/><line style="stroke:#000000;stroke-width:1.0;" x1="132.5" x2="132.5" y1="762.4458" y2="782.4458"/><polygon fill="#000000" points="128.5,772.4458,132.5,782.4458,136.5,772.4458,132.5,776.4458" style="stroke:#000000;stroke-width:1.0;"/><line style="stroke:#000000;stroke-width:1.0;" x1="270.5" x2="270.5" y1="762.4458" y2="782.4458"/><polygon fill="#000000" points="266.5,772.4458,270.5,782.4458,274.5,772.4458,270.5,776.4458" style="stroke:#000000;stroke-width:1.0;"/><line style="stroke:#000000;stroke-width:1.0;" x1="417.5" x2="417.5" y1="762.4458" y2="782.4458"/><polygon fill="#000000" points="413.5,772.4458,417.5,782.4458,421.5,772.4458,417.5,776.4458" style="stroke:#000000;stroke-width:1.0;"/><line style="stroke:#000000;stroke-width:1.0;" x1="562" x2="562" y1="762.4458" y2="782.4458"/><polygon fill="#000000" points="558,772.4458,562,782.4458,566,772.4458,562,776.4458" style="stroke:#000000;stroke-width:1.0;"/><line style="stroke:#000000;stroke-width:1.0;" x1="350.5" x2="350.5" y1="598.5083" y2="633.5083"/><polygon fill="#000000" points="346.5,623.5083,350.5,633.5083,354.5,623.5083,350.5,627.5083" style="stroke:#000000;stroke-width:1.0;"/><line style="stroke:#000000;stroke-width:1.0;" x1="735.5" x2="735.5" y1="693.4771" y2="728.4771"/><polygon fill="#000000" points="731.5,718.4771,735.5,728.4771,739.5,718.4771,735.5,722.4771" style="stroke:#000000;stroke-width:1.0;"/><line style="stroke:#000000;stroke-width:1.0;" x1="884.5" x2="884.5" y1="693.4771" y2="728.4771"/><polygon fill="#000000" points="880.5,718.4771,884.5,728.4771,888.5,718.4771,884.5,722.4771" style="stroke:#000000;stroke-width:1.0;"/><line style="stroke:#000000;stroke-width:1.0;" x1="1018.5" x2="1018.5" y1="693.4771" y2="728.4771"/><polygon fill="#000000" points="1014.5,718.4771,1018.5,728.4771,1022.5,718.4771,1018.5,722.4771" style="stroke:#000000;stroke-width:1.0;"/><line style="stroke:#000000;stroke-width:1.0;" x1="735.5" x2="735.5" y1="639.5083" y2="659.5083"/><polygon fill="#000000" points="731.5,649.5083,735.5,659.5083,739.5,649.5083,735.5,653.5083" style="stroke:#000000;stroke-width:1.0;"/><line style="stroke:#000000;stroke-width:1.0;" x1="884.5" x2="884.5" y1="639.5083" y2="659.5083"/><polygon fill="#000000" points="880.5,649.5083,884.5,659.5083,888.5,649.5083,884.5,653.5083" style="stroke:#000000;stroke-width:1.0;"/><line style="stroke:#000000;stroke-width:1.0;" x1="1018.5" x2="1018.5" y1="639.5083" y2="659.5083"/><polygon fill="#000000" points="1014.5,649.5083,1018.5,659.5083,1022.5,649.5083,1018.5,653.5083" style="stroke:#000000;stroke-width:1.0;"/><line style="stroke:#000000;stroke-width:1.0;" x1="735.5" x2="735.5" y1="762.4458" y2="782.4458"/><polygon fill="#000000" points="731.5,772.4458,735.5,782.4458,739.5,772.4458,735.5,776.4458" style="stroke:#000000;stroke-width:1.0;"/><line style="stroke:#000000;stroke-width:1.0;" x1="884.5" x2="884.5" y1="762.4458" y2="782.4458"/><polygon fill="#000000" points="880.5,772.4458,884.5,782.4458,888.5,772.4458,884.5,776.4458" style="stroke:#000000;stroke-width:1.0;"/><line style="stroke:#000000;stroke-width:1.0;" x1="1018.5" x2="1018.5" y1="762.4458" y2="782.4458"/><polygon fill="#000000" points="1014.5,772.4458,1018.5,782.4458,1022.5,772.4458,1018.5,776.4458" style="stroke:#000000;stroke-width:1.0;"/><line style="stroke:#000000;stroke-width:1.0;" x1="879.5" x2="879.5" y1="598.5083" y2="633.5083"/><polygon fill="#000000" points="875.5,623.5083,879.5,633.5083,883.5,623.5083,879.5,627.5083" style="stroke:#000000;stroke-width:1.0;"/><line style="stroke:#000000;stroke-width:1.0;" x1="1191.5" x2="1191.5" y1="693.4771" y2="728.4771"/><polygon fill="#000000" points="1187.5,718.4771,1191.5,728.4771,1195.5,718.4771,1191.5,722.4771" style="stroke:#000000;stroke-width:1.0;"/><line style="stroke:#000000;stroke-width:1.0;" x1="1338.5" x2="1338.5" y1="693.4771" y2="728.4771"/><polygon fill="#000000" points="1334.5,718.4771,1338.5,728.4771,1342.5,718.4771,1338.5,722.4771" style="stroke:#000000;stroke-width:1.0;"/><line style="stroke:#000000;stroke-width:1.0;" x1="1191.5" x2="1191.5" y1="639.5083" y2="659.5083"/><polygon fill="#000000" points="1187.5,649.5083,1191.5,659.5083,1195.5,649.5083,1191.5,653.5083" style="stroke:#000000;stroke-width:1.0;"/><line style="stroke:#000000;stroke-width:1.0;" x1="1338.5" x2="1338.5" y1="639.5083" y2="659.5083"/><polygon fill="#000000" points="1334.5,649.5083,1338.5,659.5083,1342.5,649.5083,1338.5,653.5083" style="stroke:#000000;stroke-width:1.0;"/><line style="stroke:#000000;stroke-width:1.0;" x1="1191.5" x2="1191.5" y1="762.4458" y2="782.4458"/><polygon fill="#000000" points="1187.5,772.4458,1191.5,782.4458,1195.5,772.4458,1191.5,776.4458" style="stroke:#000000;stroke-width:1.0;"/><line style="stroke:#000000;stroke-width:1.0;" x1="1338.5" x2="1338.5" y1="762.4458" y2="782.4458"/><polygon fill="#000000" points="1334.5,772.4458,1338.5,782.4458,1342.5,772.4458,1338.5,776.4458" style="stroke:#000000;stroke-width:1.0;"/><line style="stroke:#000000;stroke-width:1.0;" x1="1265" x2="1265" y1="598.5083" y2="633.5083"/><polygon fill="#000000" points="1261,623.5083,1265,633.5083,1269,623.5083,1265,627.5083" style="stroke:#000000;stroke-width:1.0;"/><line style="stroke:#000000;stroke-width:1.0;" x1="1521" x2="1521" y1="727.9614" y2="762.9614"/><polygon fill="#000000" points="1517,752.9614,1521,762.9614,1525,752.9614,1521,756.9614" style="stroke:#000000;stroke-width:1.0;"/><line style="stroke:#000000;stroke-width:1.0;" x1="1683" x2="1683" y1="727.9614" y2="762.9614"/><polygon fill="#000000" points="1679,752.9614,1683,762.9614,1687,752.9614,1683,756.9614" style="stroke:#000000;stroke-width:1.0;"/><line style="stroke:#000000;stroke-width:1.0;" x1="1849.5" x2="1849.5" y1="727.9614" y2="762.9614"/><polygon fill="#000000" points="1845.5,752.9614,1849.5,762.9614,1853.5,752.9614,1849.5,756.9614" style="stroke:#000000;stroke-width:1.0;"/><line style="stroke:#000000;stroke-width:1.0;" x1="1521" x2="1521" y1="673.9927" y2="693.9927"/><polygon fill="#000000" points="1517,683.9927,1521,693.9927,1525,683.9927,1521,687.9927" style="stroke:#000000;stroke-width:1.0;"/><line style="stroke:#000000;stroke-width:1.0;" x1="1683" x2="1683" y1="673.9927" y2="693.9927"/><polygon fill="#000000" points="1679,683.9927,1683,693.9927,1687,683.9927,1683,687.9927" style="stroke:#000000;stroke-width:1.0;"/><line style="stroke:#000000;stroke-width:1.0;" x1="1849.5" x2="1849.5" y1="673.9927" y2="693.9927"/><polygon fill="#000000" points="1845.5,683.9927,1849.5,693.9927,1853.5,683.9927,1849.5,687.9927" style="stroke:#000000;stroke-width:1.0;"/><line style="stroke:#000000;stroke-width:1.0;" x1="1521" x2="1521" y1="796.9302" y2="816.9302"/><polygon fill="#000000" points="1517,806.9302,1521,816.9302,1525,806.9302,1521,810.9302" style="stroke:#000000;stroke-width:1.0;"/><line style="stroke:#000000;stroke-width:1.0;" x1="1683" x2="1683" y1="796.9302" y2="816.9302"/><polygon fill="#000000" points="1679,806.9302,1683,816.9302,1687,806.9302,1683,810.9302" style="stroke:#000000;stroke-width:1.0;"/><line style="stroke:#000000;stroke-width:1.0;" x1="1849.5" x2="1849.5" y1="796.9302" y2="816.9302"/><polygon fill="#000000" points="1845.5,806.9302,1849.5,816.9302,1853.5,806.9302,1849.5,810.9302" style="stroke:#000000;stroke-width:1.0;"/><line style="stroke:#000000;stroke-width:1.0;" x1="1684.5" x2="1684.5" y1="632.9927" y2="667.9927"/><polygon fill="#000000" points="1680.5,657.9927,1684.5,667.9927,1688.5,657.9927,1684.5,661.9927" style="stroke:#000000;stroke-width:1.0;"/><line style="stroke:#000000;stroke-width:1.0;" x1="2048" x2="2048" y1="727.9614" y2="762.9614"/><polygon fill="#000000" points="2044,752.9614,2048,762.9614,2052,752.9614,2048,756.9614" style="stroke:#000000;stroke-width:1.0;"/><line style="stroke:#000000;stroke-width:1.0;" x1="2242.5" x2="2242.5" y1="727.9614" y2="762.9614"/><polygon fill="#000000" points="2238.5,752.9614,2242.5,762.9614,2246.5,752.9614,2242.5,756.9614" style="stroke:#000000;stroke-width:1.0;"/><line style="stroke:#000000;stroke-width:1.0;" x1="2048" x2="2048" y1="673.9927" y2="693.9927"/><polygon fill="#000000" points="2044,683.9927,2048,693.9927,2052,683.9927,2048,687.9927" style="stroke:#000000;stroke-width:1.0;"/><line style="stroke:#000000;stroke-width:1.0;" x1="2242.5" x2="2242.5" y1="673.9927" y2="693.9927"/><polygon fill="#000000" points="2238.5,683.9927,2242.5,693.9927,2246.5,683.9927,2242.5,687.9927" style="stroke:#000000;stroke-width:1.0;"/><line style="stroke:#000000;stroke-width:1.0;" x1="2048" x2="2048" y1="796.9302" y2="816.9302"/><polygon fill="#000000" points="2044,806.9302,2048,816.9302,2052,806.9302,2048,810.9302" style="stroke:#000000;stroke-width:1.0;"/><line style="stroke:#000000;stroke-width:1.0;" x1="2242.5" x2="2242.5" y1="796.9302" y2="816.9302"/><polygon fill="#000000" points="2238.5,806.9302,2242.5,816.9302,2246.5,806.9302,2242.5,810.9302" style="stroke:#000000;stroke-width:1.0;"/><line style="stroke:#000000;stroke-width:1.0;" x1="2142.5" x2="2142.5" y1="632.9927" y2="667.9927"/><polygon fill="#000000" points="2138.5,657.9927,2142.5,667.9927,2146.5,657.9927,2142.5,661.9927" style="stroke:#000000;stroke-width:1.0;"/><line style="stroke:#000000;stroke-width:1.0;" x1="1684.5" x2="1684.5" y1="579.0239" y2="599.0239"/><polygon fill="#000000" points="1680.5,589.0239,1684.5,599.0239,1688.5,589.0239,1684.5,593.0239" style="stroke:#000000;stroke-width:1.0;"/><line style="stroke:#000000;stroke-width:1.0;" x1="2142.5" x2="2142.5" y1="579.0239" y2="599.0239"/><polygon fill="#000000" points="2138.5,589.0239,2142.5,599.0239,2146.5,589.0239,2142.5,593.0239" style="stroke:#000000;stroke-width:1.0;"/><line style="stroke:#000000;stroke-width:1.0;" x1="1684.5" x2="1684.5" y1="822.9302" y2="842.9302"/><polygon fill="#000000" points="1680.5,832.9302,1684.5,842.9302,1688.5,832.9302,1684.5,836.9302" style="stroke:#000000;stroke-width:1.0;"/><line style="stroke:#000000;stroke-width:1.0;" x1="2142.5" x2="2142.5" y1="822.9302" y2="842.9302"/><polygon fill="#000000" points="2138.5,832.9302,2142.5,842.9302,2146.5,832.9302,2142.5,836.9302" style="stroke:#000000;stroke-width:1.0;"/><line style="stroke:#000000;stroke-width:1.0;" x1="1880" x2="1880" y1="544.5396" y2="573.0239"/><polygon fill="#000000" points="1876,563.0239,1880,573.0239,1884,563.0239,1880,567.0239" style="stroke:#000000;stroke-width:1.0;"/><line style="stroke:#000000;stroke-width:1.0;" x1="350.5" x2="350.5" y1="490.5708" y2="564.5396"/><polygon fill="#000000" points="346.5,554.5396,350.5,564.5396,354.5,554.5396,350.5,558.5396" style="stroke:#000000;stroke-width:1.0;"/><line style="stroke:#000000;stroke-width:1.0;" x1="879.5" x2="879.5" y1="490.5708" y2="564.5396"/><polygon fill="#000000" points="875.5,554.5396,879.5,564.5396,883.5,554.5396,879.5,558.5396" style="stroke:#000000;stroke-width:1.0;"/><line style="stroke:#000000;stroke-width:1.0;" x1="1265" x2="1265" y1="490.5708" y2="564.5396"/><polygon fill="#000000" points="1261,554.5396,1265,564.5396,1269,554.5396,1265,558.5396" style="stroke:#000000;stroke-width:1.0;"/><line style="stroke:#000000;stroke-width:1.0;" x1="1880" x2="1880" y1="490.5708" y2="510.5708"/><polygon fill="#000000" points="1876,500.5708,1880,510.5708,1884,500.5708,1880,504.5708" style="stroke:#000000;stroke-width:1.0;"/><line style="stroke:#000000;stroke-width:1.0;" x1="350.5" x2="350.5" y1="788.4458" y2="868.9302"/><polygon fill="#000000" points="346.5,858.9302,350.5,868.9302,354.5,858.9302,350.5,862.9302" style="stroke:#000000;stroke-width:1.0;"/><line style="stroke:#000000;stroke-width:1.0;" x1="879.5" x2="879.5" y1="788.4458" y2="868.9302"/><polygon fill="#000000" points="875.5,858.9302,879.5,868.9302,883.5,858.9302,879.5,862.9302" style="stroke:#000000;stroke-width:1.0;"/><line style="stroke:#000000;stroke-width:1.0;" x1="1265" x2="1265" y1="788.4458" y2="868.9302"/><polygon fill="#000000" points="1261,858.9302,1265,868.9302,1269,858.9302,1265,862.9302" style="stroke:#000000;stroke-width:1.0;"/><line style="stroke:#000000;stroke-width:1.0;" x1="1880" x2="1880" y1="848.9302" y2="868.9302"/><polygon fill="#000000" points="1876,858.9302,1880,868.9302,1884,858.9302,1880,862.9302" style="stroke:#000000;stroke-width:1.0;"/><line style="stroke:#000000;stroke-width:1.0;" x1="1200" x2="1200" y1="447.7661" y2="484.5708"/><polygon fill="#000000" points="1196,474.5708,1200,484.5708,1204,474.5708,1200,478.5708" style="stroke:#000000;stroke-width:1.0;"/><line style="stroke:#000000;stroke-width:1.0;" x1="1200" x2="1200" y1="874.9302" y2="884.9302"/><line style="stroke:#000000;stroke-width:1.0;" x1="1200" x2="2371" y1="884.9302" y2="884.9302"/><polygon fill="#000000" points="2367,668.0903,2371,658.0903,2375,668.0903,2371,664.0903" style="stroke:#000000;stroke-width:1.0;"/><line style="stroke:#000000;stroke-width:1.0;" x1="2371" x2="2371" y1="435.7661" y2="884.9302"/><line style="stroke:#000000;stroke-width:1.0;" x1="2371" x2="1280" y1="435.7661" y2="435.7661"/><polygon fill="#000000" points="1290,431.7661,1280,435.7661,1290,439.7661,1286,435.7661" style="stroke:#000000;stroke-width:1.0;"/><line style="stroke:#000000;stroke-width:1.0;" x1="1120" x2="19" y1="435.7661" y2="435.7661"/><line style="stroke:#000000;stroke-width:1.0;" x1="19" x2="19" y1="435.7661" y2="471.7661"/><polygon fill="#000000" points="15,461.7661,19,471.7661,23,461.7661,19,465.7661" style="stroke:#000000;stroke-width:1.0;"/><line style="stroke:#000000;stroke-width:1.0;" x1="1200" x2="1200" y1="403.7661" y2="423.7661"/><polygon fill="#000000" points="1196,413.7661,1200,423.7661,1204,413.7661,1200,417.7661" style="stroke:#000000;stroke-width:1.0;"/><!--SRC=[lPQzRjim4CTtFiLrSmQZUmIaCDoa6JeORklzAfwLWocUG5AkqRS9EdJgr4VGYvMMPCjAKgL1h6eGAFBkTnz_YTIRS4SvGM6GhGeS3C6DANUIESmH5evjoWKQvJTi2uoJi4IxqUmWI34DClqg8KX-igvfZQK9dsaNPeOpcvCDaCOREQLyG1SKhs7onPVLlME1MHdY8gUevTq5n7GiJ6prGouKnEloesHitoufOn-S9FMaeu8md0pXsnt7p2T7LlKp4c1RtHlM6B7iJw7JAyzveiXgNYjrkOYra-cAJPHgUNE9D5kY0uk0XJcGMsAaDC2rk4qzg5F-G8uYANgz9r-GHvyS5tkMjVLCSyfYE-kajpwzwfklnCGU0WeqQVVHWDbUo9x7jUOm8dsNcf97myynK2QElx- -WYXtr_uduftejgIKOjF-KRVMUYJTngAtkhqI_snJL-nBDBL-dz1e6MhfYbeZc8KIpRbBtkDlupPI_NQSocWLBybW7KC6tv_E30fni21N_HBz8Ar7RhNhOLi1At_nUwAaPyeQQ5oRRlD9_C-OSydtPqhWRHVJdoDeJyEXL-Q1I8VT25-aqe3d-NjslHLJDiUVnlE6VTIrtiJn8GxQuxCvSNtyKr1_0000]--></g></svg>