<?xml version="1.0" encoding="us-ascii" standalone="no"?><svg xmlns="http://www.w3.org/2000/svg" xmlns:xlink="http://www.w3.org/1999/xlink" contentStyleType="text/css" height="844px" preserveAspectRatio="none" style="width:570px;height:844px;background:#FFFFFF;" version="1.1" viewBox="0 0 570 844" width="570px" zoomAndPan="magnify"><defs/><g><text fill="#000000" font-family="sans-serif" font-size="14" font-weight="bold" lengthAdjust="spacing" textLength="342" x="107.25" y="22.9951">Sistema de Controle de Despesas Pessoais</text><!--entity Usuario--><g id="elem_Usuario"><rect fill="#F1F1F1" height="36.2969" rx="2.5" ry="2.5" style="stroke:#181818;stroke-width:0.5;" width="72" x="340" y="44.2969"/><text fill="#000000" font-family="sans-serif" font-size="14" lengthAdjust="spacing" textLength="52" x="350" y="67.292">Usu&#225;rio</text></g><!--entity Sistema--><g id="elem_Sistema"><rect fill="#F1F1F1" height="52.5938" rx="2.5" ry="2.5" style="stroke:#181818;stroke-width:0.5;" width="182" x="182" y="140.2969"/><text fill="#000000" font-family="sans-serif" font-size="14" lengthAdjust="spacing" textLength="162" x="192" y="163.292">Sistema de Controle de</text><text fill="#000000" font-family="sans-serif" font-size="14" lengthAdjust="spacing" textLength="70" x="192" y="179.5889">Despesas</text></g><!--entity DB--><g id="elem_DB"><rect fill="#F1F1F1" height="36.2969" rx="2.5" ry="2.5" style="stroke:#181818;stroke-width:0.5;" width="135" x="22.5" y="269.7969"/><text fill="#000000" font-family="sans-serif" font-size="14" lengthAdjust="spacing" textLength="115" x="32.5" y="292.792">Banco de Dados</text></g><!--entity UC1--><g id="elem_UC1"><rect fill="#F1F1F1" height="52.5938" rx="2.5" ry="2.5" style="stroke:#181818;stroke-width:0.5;" width="162" x="399" y="140.2969"/><text fill="#000000" font-family="sans-serif" font-size="14" lengthAdjust="spacing" textLength="142" x="409" y="163.292">Cadastrar categorias</text><text fill="#000000" font-family="sans-serif" font-size="14" lengthAdjust="spacing" textLength="90" x="409" y="179.5889">de despesas</text></g><!--entity UC2--><g id="elem_UC2"><rect fill="#F1F1F1" height="52.5938" rx="2.5" ry="2.5" style="stroke:#181818;stroke-width:0.5;" width="127" x="416.5" y="261.2969"/><text fill="#000000" font-family="sans-serif" font-size="14" lengthAdjust="spacing" textLength="107" x="426.5" y="284.292">Registrar novas</text><text fill="#000000" font-family="sans-serif" font-size="14" lengthAdjust="spacing" textLength="68" x="426.5" y="300.5889">despesas</text></g><!--entity UC3--><g id="elem_UC3"><rect fill="#F1F1F1" height="52.5938" rx="2.5" ry="2.5" style="stroke:#181818;stroke-width:0.5;" width="134" x="413" y="390.2969"/><text fill="#000000" font-family="sans-serif" font-size="14" lengthAdjust="spacing" textLength="114" x="423" y="413.292">Visualizar e filtrar</text><text fill="#000000" font-family="sans-serif" font-size="14" lengthAdjust="spacing" textLength="68" x="423" y="429.5889">despesas</text></g><!--entity UC4--><g id="elem_UC4"><rect fill="#F1F1F1" height="52.5938" rx="2.5" ry="2.5" style="stroke:#181818;stroke-width:0.5;" width="148" x="406" y="519.2969"/><text fill="#000000" font-family="sans-serif" font-size="14" lengthAdjust="spacing" textLength="128" x="416" y="542.292">Gerar relat&#243;rios de</text><text fill="#000000" font-family="sans-serif" font-size="14" lengthAdjust="spacing" textLength="47" x="416" y="558.5889">gastos</text></g><!--entity UC5--><g id="elem_UC5"><rect fill="#F1F1F1" height="52.5938" rx="2.5" ry="2.5" style="stroke:#181818;stroke-width:0.5;" width="161" x="399.5" y="648.2969"/><text fill="#000000" font-family="sans-serif" font-size="14" lengthAdjust="spacing" textLength="136" x="409.5" y="671.292">Definir or&#231;amento e</text><text fill="#000000" font-family="sans-serif" font-size="14" lengthAdjust="spacing" textLength="141" x="409.5" y="687.5889">receber notifica&#231;&#245;es</text></g><!--entity UC6--><g id="elem_UC6"><rect fill="#F1F1F1" height="68.8906" rx="2.5" ry="2.5" style="stroke:#181818;stroke-width:0.5;" width="169" x="395.5" y="769.2969"/><text fill="#000000" font-family="sans-serif" font-size="14" lengthAdjust="spacing" textLength="149" x="405.5" y="792.292">Registrar entradas de</text><text fill="#000000" font-family="sans-serif" font-size="14" lengthAdjust="spacing" textLength="104" x="405.5" y="808.5889">dinheiro (como</text><text fill="#000000" font-family="sans-serif" font-size="14" lengthAdjust="spacing" textLength="49" x="405.5" y="824.8857">sal&#225;rio)</text></g><!--entity SC1--><g id="elem_SC1"><rect fill="#F1F1F1" height="68.8906" rx="2.5" ry="2.5" style="stroke:#181818;stroke-width:0.5;" width="168" x="193" y="253.2969"/><text fill="#000000" font-family="sans-serif" font-size="14" lengthAdjust="spacing" textLength="148" x="203" y="276.292">Armazena e recupera</text><text fill="#000000" font-family="sans-serif" font-size="14" lengthAdjust="spacing" textLength="107" x="203" y="292.5889">informa&#231;&#245;es no</text><text fill="#000000" font-family="sans-serif" font-size="14" lengthAdjust="spacing" textLength="112" x="203" y="308.8857">banco de dados</text></g><!--entity SC2--><g id="elem_SC2"><rect fill="#F1F1F1" height="52.5938" rx="2.5" ry="2.5" style="stroke:#181818;stroke-width:0.5;" width="123" x="215.5" y="390.2969"/><text fill="#000000" font-family="sans-serif" font-size="14" lengthAdjust="spacing" textLength="103" x="225.5" y="413.292">Calcula o saldo</text><text fill="#000000" font-family="sans-serif" font-size="14" lengthAdjust="spacing" textLength="69" x="225.5" y="429.5889">dispon&#237;vel</text></g><!--entity SC3--><g id="elem_SC3"><rect fill="#F1F1F1" height="52.5938" rx="2.5" ry="2.5" style="stroke:#181818;stroke-width:0.5;" width="134" x="211" y="519.2969"/><text fill="#000000" font-family="sans-serif" font-size="14" lengthAdjust="spacing" textLength="114" x="221" y="542.292">Gera relat&#243;rios e</text><text fill="#000000" font-family="sans-serif" font-size="14" lengthAdjust="spacing" textLength="54" x="221" y="558.5889">gr&#225;ficos</text></g><!--entity SC4--><g id="elem_SC4"><rect fill="#F1F1F1" height="52.5938" rx="2.5" ry="2.5" style="stroke:#181818;stroke-width:0.5;" width="165" x="195.5" y="648.2969"/><text fill="#000000" font-family="sans-serif" font-size="14" lengthAdjust="spacing" textLength="145" x="205.5" y="671.292">Envia notifica&#231;&#245;es de</text><text fill="#000000" font-family="sans-serif" font-size="14" lengthAdjust="spacing" textLength="137" x="205.5" y="687.5889">limite de or&#231;amento</text></g><!--entity DBC1--><g id="elem_DBC1"><rect fill="#F1F1F1" height="68.8906" rx="2.5" ry="2.5" style="stroke:#181818;stroke-width:0.5;" width="166" x="7" y="382.2969"/><text fill="#000000" font-family="sans-serif" font-size="14" lengthAdjust="spacing" textLength="120" x="17" y="405.292">Salvar categorias,</text><text fill="#000000" font-family="sans-serif" font-size="14" lengthAdjust="spacing" textLength="146" x="17" y="421.5889">despesas e entradas</text><text fill="#000000" font-family="sans-serif" font-size="14" lengthAdjust="spacing" textLength="78" x="17" y="437.8857">de dinheiro</text></g><!--entity DBC2--><g id="elem_DBC2"><rect fill="#F1F1F1" height="68.8906" rx="2.5" ry="2.5" style="stroke:#181818;stroke-width:0.5;" width="164" x="7" y="511.2969"/><text fill="#000000" font-family="sans-serif" font-size="14" lengthAdjust="spacing" textLength="144" x="17" y="534.292">Armazenar regras de</text><text fill="#000000" font-family="sans-serif" font-size="14" lengthAdjust="spacing" textLength="88" x="17" y="550.5889">or&#231;amento e</text><text fill="#000000" font-family="sans-serif" font-size="14" lengthAdjust="spacing" textLength="83" x="17" y="566.8857">notifica&#231;&#245;es</text></g><!--entity DBC3--><g id="elem_DBC3"><rect fill="#F1F1F1" height="68.8906" rx="2.5" ry="2.5" style="stroke:#181818;stroke-width:0.5;" width="145" x="15.5" y="640.2969"/><text fill="#000000" font-family="sans-serif" font-size="14" lengthAdjust="spacing" textLength="123" x="25.5" y="663.292">Permitir consultas</text><text fill="#000000" font-family="sans-serif" font-size="14" lengthAdjust="spacing" textLength="111" x="25.5" y="679.5889">para relat&#243;rios e</text><text fill="#000000" font-family="sans-serif" font-size="14" lengthAdjust="spacing" textLength="125" x="25.5" y="695.8857">exibi&#231;&#227;o de dados</text></g><!--link Usuario to Sistema--><g id="link_Usuario_Sistema"><path d="M354.2757,84.9178 C337.8557,101.2478 321.6029,117.4345 302.9429,136.0045 " fill="none" id="Usuario-Sistema" style="stroke:#181818;stroke-width:1.0;"/><polygon fill="#181818" points="358.53,80.6869,349.3279,84.1971,354.9848,84.2127,354.9692,89.8695,358.53,80.6869" style="stroke:#181818;stroke-width:1.0;"/><polygon fill="#181818" points="298.69,140.2369,307.8909,136.7236,302.2341,136.7099,302.2477,131.0531,298.69,140.2369" style="stroke:#181818;stroke-width:1.0;"/></g><!--link Sistema to DB--><g id="link_Sistema_DB"><path d="M228.7097,196.5973 C193.2097,219.6773 151.9997,246.4755 121.2497,266.4755 " fill="none" id="Sistema-DB" style="stroke:#181818;stroke-width:1.0;"/><polygon fill="#181818" points="233.74,193.3269,224.0142,194.879,229.5481,196.0522,228.3748,201.5861,233.74,193.3269" style="stroke:#181818;stroke-width:1.0;"/><polygon fill="#181818" points="116.22,269.7469,125.9455,268.193,120.4114,267.0207,121.5837,261.4867,116.22,269.7469" style="stroke:#181818;stroke-width:1.0;"/></g><!--link Usuario to UC1--><g id="link_Usuario_UC1"><path d="M393.64,80.6869 C410.22,97.0169 430.9469,117.455 449.7869,136.025 " fill="none" id="Usuario-to-UC1" style="stroke:#181818;stroke-width:1.0;"/><polygon fill="#181818" points="454.06,140.2369,450.4582,131.0702,450.499,136.7269,444.8423,136.7678,454.06,140.2369" style="stroke:#181818;stroke-width:1.0;"/></g><!--link UC1 to UC2--><g id="link_UC1_UC2"><path d="M480,193.3269 C480,213.2669 480,234.8669 480,254.8969 " fill="none" id="UC1-to-UC2" style="stroke:#181818;stroke-width:1.0;"/><polygon fill="#181818" points="480,260.8969,484,251.8969,480,255.8969,476,251.8969,480,260.8969" style="stroke:#181818;stroke-width:1.0;"/></g><!--link UC2 to UC3--><g id="link_UC2_UC3"><path d="M480,314.4969 C480,336.5269 480,362.1069 480,384.1369 " fill="none" id="UC2-to-UC3" style="stroke:#181818;stroke-width:1.0;"/><polygon fill="#181818" points="480,390.1369,484,381.1369,480,385.1369,476,381.1369,480,390.1369" style="stroke:#181818;stroke-width:1.0;"/></g><!--link UC3 to UC4--><g id="link_UC3_UC4"><path d="M480,443.4969 C480,465.5269 480,491.1069 480,513.1369 " fill="none" id="UC3-to-UC4" style="stroke:#181818;stroke-width:1.0;"/><polygon fill="#181818" points="480,519.1369,484,510.1369,480,514.1369,476,510.1369,480,519.1369" style="stroke:#181818;stroke-width:1.0;"/></g><!--link UC4 to UC5--><g id="link_UC4_UC5"><path d="M480,572.4969 C480,594.5269 480,620.1069 480,642.1369 " fill="none" id="UC4-to-UC5" style="stroke:#181818;stroke-width:1.0;"/><polygon fill="#181818" points="480,648.1369,484,639.1369,480,643.1369,476,639.1369,480,648.1369" style="stroke:#181818;stroke-width:1.0;"/></g><!--link UC5 to UC6--><g id="link_UC5_UC6"><path d="M480,701.4969 C480,720.9169 480,741.7669 480,762.9369 " fill="none" id="UC5-to-UC6" style="stroke:#181818;stroke-width:1.0;"/><polygon fill="#181818" points="480,768.9369,484,759.9369,480,763.9369,476,759.9369,480,768.9369" style="stroke:#181818;stroke-width:1.0;"/></g><!--link Sistema to SC1--><g id="link_Sistema_SC1"><path d="M273.86,193.3269 C274.45,210.8069 275.028,228.1803 275.668,247.1803 " fill="none" id="Sistema-to-SC1" style="stroke:#181818;stroke-width:1.0;"/><polygon fill="#181818" points="275.87,253.1769,279.5647,244.0473,275.7017,248.1797,271.5693,244.3166,275.87,253.1769" style="stroke:#181818;stroke-width:1.0;"/></g><!--link SC1 to SC2--><g id="link_SC1_SC2"><path d="M277,322.4969 C277,343.6569 277,364.5369 277,383.9969 " fill="none" id="SC1-to-SC2" style="stroke:#181818;stroke-width:1.0;"/><polygon fill="#181818" points="277,389.9969,281,380.9969,277,384.9969,273,380.9969,277,389.9969" style="stroke:#181818;stroke-width:1.0;"/></g><!--link SC2 to SC3--><g id="link_SC2_SC3"><path d="M277.2,443.4969 C277.38,465.5269 277.571,491.1071 277.751,513.1371 " fill="none" id="SC2-to-SC3" style="stroke:#181818;stroke-width:1.0;"/><polygon fill="#181818" points="277.8,519.1369,281.7263,510.1045,277.7591,514.137,273.7266,510.1699,277.8,519.1369" style="stroke:#181818;stroke-width:1.0;"/></g><!--link SC3 to SC4--><g id="link_SC3_SC4"><path d="M278,572.4969 C278,594.5269 278,620.1069 278,642.1369 " fill="none" id="SC3-to-SC4" style="stroke:#181818;stroke-width:1.0;"/><polygon fill="#181818" points="278,648.1369,282,639.1369,278,643.1369,274,639.1369,278,648.1369" style="stroke:#181818;stroke-width:1.0;"/></g><!--link DB to DBC1--><g id="link_DB_DBC1"><path d="M90,305.9269 C90,325.3569 90,351.5269 90,376.0469 " fill="none" id="DB-to-DBC1" style="stroke:#181818;stroke-width:1.0;"/><polygon fill="#181818" points="90,382.0469,94,373.0469,90,377.0469,86,373.0469,90,382.0469" style="stroke:#181818;stroke-width:1.0;"/></g><!--link DBC1 to DBC2--><g id="link_DBC1_DBC2"><path d="M89.73,451.4969 C89.59,469.8669 89.4557,486.547 89.3157,504.937 " fill="none" id="DBC1-to-DBC2" style="stroke:#181818;stroke-width:1.0;"/><polygon fill="#181818" points="89.27,510.9369,93.3384,501.9676,89.3081,505.937,85.3386,501.9067,89.27,510.9369" style="stroke:#181818;stroke-width:1.0;"/></g><!--link DBC2 to DBC3--><g id="link_DBC2_DBC3"><path d="M88.73,580.4969 C88.59,598.8669 88.4557,615.547 88.3157,633.937 " fill="none" id="DBC2-to-DBC3" style="stroke:#181818;stroke-width:1.0;"/><polygon fill="#181818" points="88.27,639.9369,92.3384,630.9676,88.3081,634.937,84.3386,630.9067,88.27,639.9369" style="stroke:#181818;stroke-width:1.0;"/></g><!--SRC=[TLGzRzim4DtrAuWiRO5wg6ndAWBKTj4rgE1ENixIsJs0uXaaRJVvDq67J9sA_WBziHwfZr2ECzZGdTvzyBr7UV8QrKr1pcCDgaArPECjIrAUL-WEwC2fUtIEWTnDbhsJx8uCAiCLkinYwS7iGvErEpPFblX6IOK48C_f- -j3DgQV4kiwK5gt05DoN0SgRb6hHR98oSO8cjWujKL_HZJgOAa6-o3lwWCRDDvbtKRgysHoDupfTuh9jklQeLNGzTjfFgUxBA42vorOLOB7FLi2jp5LE4XoYFNoKrhq7VVK5Xa-jVWHE4_1FqZsrFGeQ5Gxqg7kLSKqhVY6eRL53RxvAoTqaTMzxCazVfRY8sra5Tlc6MhXXfNW1O1R32jwsb49pNFp3_lw-VNZIAqDXCI15PcVI9RLUo6TDyQ1ZdRuqFMupGO99XMVZH0UU99V4kSIvqaybNYQn3E9PqaybtYUnBT1mU8XYFgcXbzi3OzeGFYLxF4Wz6qCcHrBlZsraB0nszvsrM2xOgph4dHvrA1OoLah3XGuSLlpvuIwm-UNGerq2ZBPvade7WQCbFrgJWGNYaIkDTNaunLz4R5hCCi6K_UqXBMBXEQmLf7G7AOM2SsnYLmlyB05XsyIMO0-ZMx2nnUZ2hczEzhxqRcZkxvZ8dj5WeltjlFJs9vNR2bTHlJUenLMnDZoGN17xSFa0xoc77_HbgJFxmjrfTyqorQBWOUuPlXBCtd8v6bcclq7]--></g></svg>